<svg xmlns="http://www.w3.org/2000/svg" viewBox="0 0 200 200" height="400" width="400"><defs></defs><path d="M54.8 50.083C48.241 58.1 62.1 76.7 62.1 76.7c16.4-26.252-.733-34.638-7.3-26.617zm6.385 9.117a3.464 3.464 0 0 1-3.464-3.464c0-3.112 4.218-4.5 6.176-2.117a3.2 3.2 0 0 1 .74 2.117 3.526 3.526 0 0 1-3.452 3.464z" fill="#ff8684"></path><path d="M160.75 176.883c-3.257.122-6.516.18-9.774.23q-6.727.1-13.456.135-8.044.05-16.09.057-8.864.012-17.726 0-9.066-.015-18.131-.049-8.766-.033-17.532-.079-7.957-.042-15.916-.092-6.543-.042-13.087-.09-4.641-.033-9.281-.07c-1.437-.012-2.879-.059-4.316-.036h-.185a.389.389 0 0 0 0 .778l2.973.024q4.076.034 8.149.064 6.124.045 12.248.086 7.669.051 15.339.093 8.61.048 17.221.084 9.04.038 18.083.058 8.973.019 17.944.016 8.286 0 16.572-.041 7.126-.035 14.253-.115c3.578-.044 7.157-.1 10.734-.2q.989-.029 1.978-.065c.499-.029.501-.806 0-.788zm-133.266 3.123a12.966 12.966 0 0 1-2.956.352c-1.459.069-2.921.07-4.38.052a195.016 195.016 0 0 1-8.375-.309c-.6-.034-1.2-.068-1.8-.109-.5-.033-.5.744 0 .777 1.683.113 3.368.2 5.053.269 3.03.129 6.073.23 9.105.114a15.329 15.329 0 0 0 3.562-.4.389.389 0 0 0-.209-.746zm167.127-41.724c-2 .121-4 .18-5.995.229-2.751.068-5.5.107-8.254.135q-4.935.051-9.87.057-5.436.013-10.873 0-5.56-.015-11.122-.05-5.376-.033-10.753-.079-4.882-.04-9.764-.092-4.013-.042-8.027-.089-2.847-.034-5.693-.071c-.881-.011-1.766-.048-2.648-.036h-.113a.389.389 0 0 0 0 .777l1.824.025q2.5.033 5 .063 3.757.047 7.513.087 4.7.049 9.409.093 5.282.047 10.563.083 5.547.037 11.093.058 5.5.02 11.006.017 5.084 0 10.166-.041c2.914-.023 5.829-.056 8.743-.115 2.195-.045 4.391-.1 6.584-.205q.606-.029 1.213-.065c.495-.034.499-.812-.002-.781zm0 12.953c-2 .121-4 .18-5.995.23-2.751.068-5.5.106-8.254.135q-4.935.05-9.87.057-5.436.012-10.873 0-5.56-.015-11.122-.049-5.376-.033-10.753-.079-4.882-.042-9.764-.092-4.013-.042-8.027-.09-2.847-.033-5.693-.07c-.881-.012-1.766-.048-2.648-.036h-.113a.389.389 0 0 0 0 .778l1.824.024q2.5.035 5 .064 3.757.045 7.513.086 4.7.051 9.409.093 5.282.048 10.563.084 5.547.037 11.093.058 5.5.02 11.006.016 5.084 0 10.166-.041c2.914-.023 5.829-.056 8.743-.115 2.195-.044 4.391-.1 6.584-.2q.606-.029 1.213-.065c.495-.041.499-.818-.002-.788zm0 11.659c-2.555.285-5.145.315-7.713.364-3.742.07-7.485.072-11.228.053q-5.932-.029-11.866-.128-4.812-.075-9.625-.182c-1.5-.032-3.01-.132-4.509-.106h-.06a.389.389 0 0 0 0 .777q1.846.048 3.692.088 4.579.1 9.159.179 5.874.1 11.748.142c3.819.025 7.639.031 11.458-.025 2.763-.04 5.539-.075 8.292-.319.218-.02.435-.041.652-.065.489-.056.497-.834 0-.778zm-75.176-26.655.019.019a.365.365 0 0 0 .261.1l5.877.019q7.154.021 14.307.038 8.817.021 17.634.03 8.115.009 16.229-.005c3.242-.007 6.487.006 9.728-.068.166 0 .332-.008.5-.014a.4.4 0 0 0 .389-.389l.051-2.939q.067-3.963.137-7.927l.2-11.8.247-14.3.273-15.765.274-15.806.259-14.832.216-12.455.156-9.018c.024-1.414.078-2.831.073-4.245v-.185a.394.394 0 0 0-.388-.389h-58.035c-2.665 0-5.346-.086-8.01 0h-.115a.394.394 0 0 0-.388.389v104.84c0 1.416-.026 2.835 0 4.25v.186a.357.357 0 0 0 .106.266zm.671-3.209V28.346c0-.413.028-.842.01-1.259h64.768c.189 0 .4.019.6.019l-.044 2.532q-.067 3.963-.137 7.926l-.2 11.8-.247 14.3-.273 15.765-.273 15.806-.257 14.839-.216 12.455-.156 9.018-.048 2.785c-.007.416-.042.847-.031 1.266-2.735.085-5.476.06-8.212.069q-7.852.024-15.707.011-8.857-.006-17.714-.027-7.5-.017-14.989-.039l-4.847-.015c-.669 0-1.351-.038-2.023-.017z" fill="#bef8d4"></path><path d="M172.574 87.874a3.875 3.875 0 0 0 4.168.247 3.977 3.977 0 0 0 2.047-3.767c-.1-1.75-1.266-3.653-3.135-3.858a.31.31 0 0 0-.311.134.414.414 0 0 0-.359-.343c-1.793-.227-3.268 1.537-3.741 3.088a4.18 4.18 0 0 0 1.331 4.499zm-.722-3.674c.193-1.46 1.468-3.346 3.132-3.136a.3.3 0 0 0 .309-.128.406.406 0 0 0 .361.337c1.317.145 2.173 1.609 2.333 2.8a3.278 3.278 0 0 1-1.268 3.149 3.217 3.217 0 0 1-3.285.289 3.3 3.3 0 0 1-1.582-3.311z" fill="#bef8d4"></path><path d="M194.611 18.8H111.5a.393.393 0 0 0-.389.389l.073 3.091.2 8.414.291 12.393.356 15.114.39 16.613.395 16.77.367 15.634.31 13.164.222 9.471c.036 1.5.048 3 .106 4.5v.192a.389.389 0 0 0 .777 0l-.073-3.092-.2-8.414-.292-12.393-.355-15.114q-.2-8.306-.391-16.612-.2-8.385-.394-16.77l-.368-15.634-.309-13.164-.216-9.47-.07-2.959c-.01-.441.013-.9-.021-1.349h81.405c.286 0 .6.03.894.02l-.111 2.749-.347 8.553-.512 12.64-.627 15.474-.682 16.833-.693 17.106q-.323 7.947-.644 15.895l-.545 13.433q-.195 4.845-.392 9.689c-.062 1.518-.159 3.04-.185 4.56 0 .066 0 .133-.008.2-.02.5.757.5.777 0l.128-3.157.347-8.553q.255-6.321.512-12.64l.627-15.475.682-16.832.693-17.106.644-15.9.544-13.434.393-9.688c.061-1.519.159-3.041.185-4.56 0-.067.005-.133.008-.2a.394.394 0 0 0-.391-.381z" fill="#bef8d4"></path><path d="M81.7 164.1a3.826 3.826 0 0 0-4.361-.379 7.488 7.488 0 0 0-3.384 3.442c-1.536 3.145-.8 6.673 1.635 7.865a4.072 4.072 0 0 0 1.8.418 4.473 4.473 0 0 0 1.466-.255 7.313 7.313 0 0 0 3.939-3.709A6.657 6.657 0 0 0 81.7 164.1zm58.292 0a3.826 3.826 0 0 0-4.361-.379 7.488 7.488 0 0 0-3.384 3.442c-1.537 3.145-.8 6.673 1.635 7.865a4.072 4.072 0 0 0 1.8.418 4.473 4.473 0 0 0 1.466-.255 7.308 7.308 0 0 0 3.938-3.709 6.327 6.327 0 0 0 .335-.835 6.5 6.5 0 0 0-1.429-6.547z" fill="#9a55c7"></path><path d="M65.958 60.933a10.1 10.1 0 1 0 19.014 4.756c0-10.159-14.195-13.767-19.014-4.756z" fill="#77d8a2"></path><path d="m23.9 117.783.056-.539c.051-.5-.726-.494-.777 0-.252 2.457-.546 4.909-.832 7.362q-.69 5.921-1.4 11.837-.771 6.482-1.551 12.961-.648 5.382-1.3 10.763l-.417 3.447c-.054.444-.142.9-.178 1.354a23.257 23.257 0 0 1-3.919.29q.087-5.232.216-10.463.151-6.482.326-12.962.167-6.3.345-12.6.138-4.885.281-9.77c.041-1.4.137-2.806.131-4.2a7.807 7.807 0 0 0 1.461-.455 9.971 9.971 0 0 0 3.61-2.533 11.241 11.241 0 0 0 1.86-2.859c.207-.452-.463-.847-.671-.392a9.527 9.527 0 0 1-6.138 5.415c-.039.01-.08.017-.119.027v-5.246a.389.389 0 0 0-.777 0v5.719l-.108 3.629q-.135 4.621-.266 9.243-.176 6.191-.342 12.383-.176 6.526-.333 13.053-.135 5.625-.241 11.25l-.013.754c-.294-.01-.589-.022-.883-.04a24.398 24.398 0 0 1-2.422-.245 25.77 25.77 0 0 1-.545-3.317c-.215-1.834-.36-3.676-.485-5.518a279.73 279.73 0 0 1-.371-6.85q-.168-3.862-.275-7.728-.117-4.029-.192-8.061-.076-3.937-.124-7.877-.045-3.588-.07-7.177-.021-2.97-.031-5.938-.006-2.118-.007-4.236c0-.662.018-1.326 0-1.987v-.086a.389.389 0 0 0-.777 0v5.093q.008 2.81.025 5.619.021 3.469.059 6.937.043 3.881.11 7.759.071 4.032.174 8.064.1 3.927.254 7.853c.094 2.385.205 4.77.351 7.153.119 1.96.259 3.92.458 5.874a39.844 39.844 0 0 0 .591 4.186c.048.229.1.457.163.683a.381.381 0 0 0 .271.271 25.865 25.865 0 0 0 8.885 0 .4.4 0 0 0 .286-.374l.506-4.187q.618-5.1 1.232-10.211.774-6.433 1.542-12.868.727-6.1 1.445-12.212c.326-2.686.643-5.366.926-8.048zm6.8-9.607-.076 1.44-.207 3.919-.307 5.8q-.186 3.537-.374 7.073-.2 3.873-.409 7.747l-.414 7.821q-.192 3.648-.386 7.294l-.326 6.166-.234 4.436c-.034.64-.1 1.292-.109 1.935a9.371 9.371 0 0 1-3.839.616 9.89 9.89 0 0 1-1.894-.211c-.487-.112-.7.638-.207.749a10.64 10.64 0 0 0 6.517-.557.387.387 0 0 0 .193-.336l.076-1.44.207-3.918.307-5.8.374-7.072.408-7.748.414-7.822.386-7.294q.162-3.083.326-6.165l.234-4.436c.037-.7.1-1.4.112-2.105v-.092c.028-.499-.749-.498-.772 0z" fill="#66c1fc"></path><path d="m86.812 78.608.621 54.373a34.007 34.007 0 0 1-4.485.461l9.358.319V79.615z" fill="#cd8b57"></path><path d="M86.812 78.608s-29.507-1.2-48.959 0l-.121 5.2-.194 8.263a12.382 12.382 0 0 1 1.5.308.391.391 0 0 1 .272.272 12.935 12.935 0 0 1 .3 1.931l1-.071 1.217-.085c.476-.034 1.357.061 1.6-.471a6.6 6.6 0 0 0 .259-1.6 13.016 13.016 0 0 1 .43-1.784 13.666 13.666 0 0 1 .644-1.642 4.08 4.08 0 0 1 .874-1.408.918.918 0 0 1 1.309 0 2.422 2.422 0 0 1 .39 1.445 14.424 14.424 0 0 1-.05 3.06 13.276 13.276 0 0 0 1.734-1.626 6.385 6.385 0 0 1 2.221-1.642 2.116 2.116 0 0 1 2.551.543c.643 1.038-.417 2.095-1.109 2.769a5.352 5.352 0 0 0-1.569 1.966c1.1.039 2.116-.841 3.059-1.283.846-.4 2.291-.63 2.676.522.372 1.115-.822 2-1.608 2.536-.477.325-.976.619-1.436.968-.257.195-1.066.758-.909 1.155.133.337.75.353 1.039.339a4.18 4.18 0 0 1 1.385.039 1.334 1.334 0 0 1 .487 2.276 2.67 2.67 0 0 1-1.441.666c-.671.132-1.348.235-2.021.351l-4.127.712-8.179 1.411.014 1.308a1.2 1.2 0 0 1-.152.772.907.907 0 0 1-.737.3c-.652.048-1.3.091-1.955.134l-.6 25.438s32.253 2.485 46.337 1.763a34.007 34.007 0 0 0 4.485-.461z" fill="#cd8b57"></path><path d="M35.733 91.992a4.258 4.258 0 0 1 1.647.058c.053.007.1.019.158.026l.194-8.263a15.647 15.647 0 0 1-6.9-3.751 53.038 53.038 0 0 1 1.924 11.806c.764.292 1.535.569 2.316.82a.406.406 0 0 1 .052.022.912.912 0 0 1 .609-.718z" fill="#ffd869"></path><path d="M34.863 93.437q-1.086-.348-2.153-.752l-.348-.131q-1.6-.618-3.156-1.354c-.22-.1-.439-.209-.657-.317a42.224 42.224 0 0 1-9.761-6.544c-2.659-2.425-4.954-5.448-5.686-9.039-.1-.489.65-.7.75-.207a13.874 13.874 0 0 0 2.422 5.329 29.8 29.8 0 0 0 8.211 7.267q1.865 1.2 3.837 2.209 1.778.91 3.632 1.656a56.942 56.942 0 0 0-.548-5.114 48.866 48.866 0 0 0-1.614-7.078c-.052-.167-.108-.333-.163-.5a29 29 0 0 0-.484-1.383 26.357 26.357 0 0 0-.194-.491l-.009-.022-.014-.032-.018-.04a.416.416 0 0 1 .169-.527 20.246 20.246 0 0 0-4.116-5.606 21.821 21.821 0 0 1-9.784-1.4 12.148 12.148 0 0 0-3.916 3.868c-4.182 6.451-5.187 15.034-5.84 22.523-.232 2.658-.348 5.318-.421 7.984-.112 2.481 4.862 2.591 6.4 2.812q4.812.689 9.675.92 3.454.163 6.914.094c1.03-.021 3.951.58 4.708-.273a.275.275 0 0 0 .028-.037 4.9 4.9 0 0 0 .04-2.086 35.169 35.169 0 0 1-6.964-1.6 31.009 31.009 0 0 1-10.573-6.514 37.011 37.011 0 0 1-7.538-9.923c-.233-.443.438-.835.671-.393a37.294 37.294 0 0 0 3.731 5.771 33.128 33.128 0 0 0 9.1 8.041 27.812 27.812 0 0 0 5.675 2.559 33.567 33.567 0 0 0 4.663 1.09q.588.1 1.177.181.776.112 1.552.207a.421.421 0 0 1 .156.05l.149-2.683q.168-3 .34-6l.069-1.224c.024-.425.043-.852.071-1.277a.375.375 0 0 1-.183-.014zm4.411 11.663v-.382l-.02-1.908-.056-1.141-.157-3.222-.061-1.177c-.022-.438-.037-.878-.057-1.317-.017-.4-.04-.8-.074-1.2a13.2 13.2 0 0 0-.242-1.677c-.359-.092-.721-.17-1.087-.227a10.22 10.22 0 0 0-1.298-.119c-.109 0-.247-.029-.321.059a.6.6 0 0 0-.057.283c0 .033-.005.067-.008.1-.086.921-.114 1.854-.16 2.78l-.016.324-.187 3.289-.3 5.364-.037.669 2.088-.14 1.228-.082.515-.035a1.338 1.338 0 0 0 .3-.016v-.019a1.6 1.6 0 0 0 .007-.206zM143.3 131.548c-1.07-1.745-3.3-3.518-5.421-2.717a3.145 3.145 0 0 0-.391.177 3.786 3.786 0 0 0-1.656 4.168 6.75 6.75 0 0 0 2.516 4.3 4 4 0 0 0 2.73.764 3.264 3.264 0 0 0 1.984-.957c1.56-1.565 1.284-3.974.238-5.735z" fill="#ffd869"></path><path d="M102.814 137.356a18.879 18.879 0 0 0-15.428-2.19c-3.206 1.009-6.123 3.358-8.523 5.654a32.408 32.408 0 0 0-6.038 7.841 31.567 31.567 0 0 0-2.314 5.359c-.151.463-1.132 4.712-1.361 6.031h44.586c-.189-1.667-1.538-8.172-1.668-8.612-1.61-5.42-4.419-10.882-9.254-14.083zm23.501 12.952a17.024 17.024 0 0 0-3.179 4.129 16.566 16.566 0 0 0-1.218 2.821c-.069.209-.458 1.882-.644 2.793h23.347c-.2-1.222-.763-3.946-.824-4.152-.847-2.853-2.326-5.729-4.872-7.414a8.103 8.103 0 0 0-.589-.352 50.728 50.728 0 0 0 2.62-9.1 4.987 4.987 0 0 1-3.509-1.291 7.687 7.687 0 0 1-2.468-5.293 4.342 4.342 0 0 1 2.312-4.216 47.263 47.263 0 0 0-4.428-3.855l1.078-5.907 6.115-5.345-.7-1.706-5.989 3.174a13.9 13.9 0 0 1-.766-3.418c-.054-.683-.083-1.718.5-2.151a12.372 12.372 0 0 1 1.565-.871q.891-.474 1.793-.928c.3-.152.6-.3.9-.453a4.472 4.472 0 0 0 .33.734c1.547 2.679 5.153 2.5 6.1-.546.8-2.578-.828-6.646-3.748-6.35-2.195.222-3.2 2.647-2.98 4.853q.029.281.082.554c-.273.135-.548.268-.821.405q-.954.48-1.9.977c-.561.3-1.15.58-1.681.929a2.682 2.682 0 0 0-.947 2.4 12.331 12.331 0 0 0 .54 3.133q.154.551.339 1.094l-4.423 2.344-8.1 1.895v-.015a13.707 13.707 0 0 0-2.608-4.753 4.506 4.506 0 0 0-1.311-1.047 2.866 2.866 0 0 0-1.608-.261c-1.558.151-3.111.363-4.661.581q-1.47.207-2.938.433l-.1-.182c-1.147-1.9-3.4-3.239-5.294-2.1-2.515 1.512-1.383 5.746.8 7.33 2.586 1.873 5.579-.146 5.214-3.218a4.655 4.655 0 0 0-.278-1.1c2.164-.335 4.335-.647 6.512-.888a4.352 4.352 0 0 1 1.647-.042 2.947 2.947 0 0 1 1.206.771 10 10 0 0 1 1.873 2.792 15.616 15.616 0 0 1 .792 1.878l-11.25 2.633.682 2.257L122.5 121.4l8.455 4.524.064-.037 2.218 21.048a9.1 9.1 0 0 0-2.437.4 12.245 12.245 0 0 0-4.485 2.973z" fill="#ff8684"></path><path d="M14.8 63.2c.026 0 .055-.01 0 0z" fill="#c98bef"></path><path d="M15.625 62a1.549 1.549 0 0 0-.059-.2c-.007-.012-.039-.083-.044-.093l-.038-.064-.04-.059-.01-.012c-.026-.028-.05-.056-.078-.082a.877.877 0 0 0-.295-.185 3.448 3.448 0 0 0-.222-.058h-.026l-.054-.005h-.216l-.063.008a1.66 1.66 0 0 0-.247.064l-.058.024a1.586 1.586 0 0 0-.235.139l-.008.008c-.049.047-.1.094-.143.144l-.01.011a1.183 1.183 0 0 0-.049.074 1.35 1.35 0 0 0-.069.13c0 .015-.028.081-.031.091-.01.034-.016.069-.025.1v.023c0 .031-.006.061-.007.092a1.4 1.4 0 0 0 .006.171c0 .016.007.05.008.056.006.032.014.064.022.1s.018.061.029.091c0 .009.016.036.023.05a1.121 1.121 0 0 0 .058.108c.015.026.033.051.05.076l.005.008.008.009c.034.036.066.073.1.108s.05.045.076.066h.006c.05.032.1.065.151.093.019.01.1.044.1.047.041.014.081.029.122.041s.1.023.154.032l.107.009h.176c.024 0 .048-.008.073-.014.058-.013.113-.032.17-.05h.009l.008-.005c.022-.012.045-.022.067-.035a1.257 1.257 0 0 0 .119-.076c0-.006.075-.064.087-.076a1.094 1.094 0 0 0 .31-.753c0-.043 0-.085-.007-.127a1.284 1.284 0 0 0-.01-.079zm2.951-3.813c1.907-.791 3.811-1.59 5.688-2.448q1.163-.532 2.308-1.1a12.442 12.442 0 0 0-.209-2.038c-.186.05-.372.1-.555.161a13.564 13.564 0 0 0-7.232 5.425z" fill="#c98bef"></path><path d="M28.417 65.6a4.559 4.559 0 0 0-.57.216 3.007 3.007 0 0 1-.369.137c-2.944.925-8.2-1.713-8.7-2.209-.421-.422-.582-3.435-.627-4.548l-.291.121c-.363.15-.563-.28-.412-.564a.361.361 0 0 1 .039-.29A14.1 14.1 0 0 1 21.72 53.9a14.319 14.319 0 0 1 4.469-2.058 7.285 7.285 0 0 0-5.962-5.415A11.538 11.538 0 0 0 9.714 50.6c-4.878 5.724-2.441 14.021 3.625 17.812a13.158 13.158 0 0 0 1.84.951 21.821 21.821 0 0 0 9.784 1.4c2.949-.223 5.165-.966 5.338-1.747.354-1.602.39-4.097-1.884-3.416zm-13.588-1.622a1.866 1.866 0 0 1-1.644-.7 1.747 1.747 0 0 1-.1-2 1.917 1.917 0 0 1 1.959-.777 1.7 1.7 0 0 1 1.367 1.62.387.387 0 0 1 .007.077 1.79 1.79 0 0 1-1.589 1.78zm14.765 3.736a15.5 15.5 0 0 1-3.463.623 13.355 13.355 0 0 1-4.422-.456 8.136 8.136 0 0 1-1.7-.647c-.44-.24-.047-.911.392-.671.045.024.09.047.136.069l.154.071c.12.054.064.03.168.071a13.106 13.106 0 0 0 8.529.191.389.389 0 0 1 .206.749z" fill="#c98bef"></path><path d="M145.619 160.051H68.361a.389.389 0 0 0 0 .777h77.258a.389.389 0 0 0 0-.777zm-8.172-22.307a4.987 4.987 0 0 0 3.509 1.291 3.93 3.93 0 0 0 2.131-.76 4.553 4.553 0 0 0 1.759-2.782 6.168 6.168 0 0 0-.874-4.337c-1.2-1.959-3.5-3.762-5.931-3.183a3.794 3.794 0 0 0-.75.262 4.342 4.342 0 0 0-2.312 4.216 7.687 7.687 0 0 0 2.468 5.293zm5.853-6.2c1.046 1.761 1.322 4.17-.238 5.733a3.264 3.264 0 0 1-1.984.957 4 4 0 0 1-2.73-.764 6.75 6.75 0 0 1-2.516-4.3 3.786 3.786 0 0 1 1.656-4.168 3.145 3.145 0 0 1 .391-.177c2.121-.795 4.351.975 5.421 2.723zM22.371 63.305a4.1 4.1 0 0 0 5.259-.7c.332-.373-.216-.924-.55-.55a3.317 3.317 0 0 1-4.317.575c-.42-.27-.81.403-.392.675z"></path><path d="M30.609 52.093a1.2 1.2 0 0 0-1.06-.681 9.034 9.034 0 0 0-2.726.28c-.212.045-.424.1-.634.151A14.344 14.344 0 0 0 21.72 53.9a14.1 14.1 0 0 0-4.232 4.563.361.361 0 0 0-.039.29c-.151.284.049.714.412.564l.291-.121q1.149-.476 2.3-.957a3.165 3.165 0 0 0-.439 1.635.389.389 0 1 0 .778 0 3.19 3.19 0 0 1 .012-.324v-.021l.015-.089c.01-.053.021-.106.034-.159a2.778 2.778 0 0 1 .1-.31l.029-.074.007-.017c.026-.055.052-.109.08-.162a2.709 2.709 0 0 1 .169-.278l.041-.059.013-.019.1-.124a2.642 2.642 0 0 1 .247-.238l.055-.047.031-.024c.045-.033.091-.065.138-.095a.433.433 0 0 0 .183-.267c.78-.335 1.558-.674 2.331-1.024q.981-.445 1.951-.917a11.488 11.488 0 0 1 .909 1.935 13.3 13.3 0 0 1 .9 4.964 10.473 10.473 0 0 1-.662 3.435 3.007 3.007 0 0 0 .369-.137 4.559 4.559 0 0 1 .57-.216 13.292 13.292 0 0 0-1.048-9.682 9.15 9.15 0 0 0-.342-.641c.174-.087.35-.17.524-.258q.8-.4 1.587-.829a3.98 3.98 0 0 0 1.216-.828 1.265 1.265 0 0 0 .259-1.276zm-.87.8a4.341 4.341 0 0 1-1.211.749q-.679.364-1.369.712c-.2.1-.391.192-.587.289q-1.146.565-2.308 1.1c-1.877.858-3.781 1.657-5.688 2.448a13.564 13.564 0 0 1 7.232-5.425c.183-.058.369-.111.555-.161a12.48 12.48 0 0 1 1.858-.355 6.185 6.185 0 0 1 1.238-.065.529.529 0 0 1 .417.173c.109.168-.02.4-.137.531z"></path><path d="M22.665 60.151a.648.81 0 1 0 1.296 0 .648.81 0 1 0-1.296 0"></path><path d="M15.045 60.5a1.917 1.917 0 0 0-1.959.777 1.747 1.747 0 0 0 .1 2 1.866 1.866 0 0 0 1.644.7 1.79 1.79 0 0 0 1.59-1.786.387.387 0 0 0-.007-.077 1.7 1.7 0 0 0-1.368-1.614zm.287 2.45c-.012.012-.083.07-.087.076a1.257 1.257 0 0 1-.119.076c-.022.013-.045.023-.067.035l-.008.005h-.009c-.057.018-.112.037-.17.05-.025.006-.049.01-.073.014h-.014c-.054 0-.107.006-.162 0l-.107-.009c-.052-.009-.1-.018-.154-.032s-.081-.027-.122-.041c0 0-.082-.037-.1-.047-.052-.028-.1-.061-.151-.093h-.006a1.198 1.198 0 0 1-.176-.174l-.007-.01-.005-.008c-.017-.025-.035-.05-.05-.076a1.121 1.121 0 0 1-.058-.108.65.65 0 0 1-.052-.141.828.828 0 0 1-.022-.1l-.008-.056a1.4 1.4 0 0 1-.006-.171c0-.031 0-.061.007-.092v-.023c.009-.034.015-.069.025-.1 0-.01.027-.076.031-.091a1.35 1.35 0 0 1 .069-.13c.015-.025.032-.05.049-.074l.01-.011c.046-.05.094-.1.143-.144l.008-.008a1.505 1.505 0 0 1 .235-.139l.058-.024a1.163 1.163 0 0 1 .247-.064l.063-.008h.216l.054.005h.026c.075.017.148.036.222.058a.889.889 0 0 1 .295.184c.028.027.052.055.078.083l.01.012.04.059.038.064c0 .01.037.081.044.093a1.549 1.549 0 0 1 .059.2l.01.07c0 .042.006.084.007.127a1.094 1.094 0 0 1-.311.758zm14.055 4.015a13.106 13.106 0 0 1-8.529-.191c-.1-.041-.048-.017-.168-.071l-.154-.071a3.467 3.467 0 0 1-.136-.069c-.439-.24-.832.431-.392.671a8.136 8.136 0 0 0 1.7.647 13.355 13.355 0 0 0 4.422.456 15.5 15.5 0 0 0 3.463-.623.389.389 0 0 0-.206-.749zm69.576 90.776a12.035 12.035 0 0 0-8.227-9.82 14.745 14.745 0 0 0-13.92 3.027 18.2 18.2 0 0 0-4.712 6.27c-.207.452.462.847.672.393a16.338 16.338 0 0 1 9.522-8.884 12.558 12.558 0 0 1 12.83 2.809 10.751 10.751 0 0 1 3.058 6.205c.057.491.835.497.777 0zM61.918 113.1q-.31-.6-.624-1.189a4.894 4.894 0 0 0-.594-.991c-.561-.635-1.277-.4-1.918-.041q-4.645 2.622-9.212 5.381-2.61 1.574-5.2 3.187c-.424.264-.034.937.392.671l.018-.011a.342.342 0 0 0 .064.241l3.928 5.779a.4.4 0 0 0 .532.139l11.63-6.066 3.306-1.723a.4.4 0 0 0 .139-.532q-1.205-2.438-2.461-4.845zm-9.7 10.771-2.983 1.556-3.719-5.471a.387.387 0 0 0-.226-.162q4.052-2.519 8.163-4.942 2.189-1.288 4.4-2.548l1.048-.6c.26-.148.745-.545 1.065-.4.25.112.392.491.51.714q.315.594.626 1.189 1.241 2.37 2.427 4.767zm34.288-27.986a40.362 40.362 0 0 0-5.477-6.95.4.4 0 0 0-.549 0 49.408 49.408 0 0 0-5.745 5.392.4.4 0 0 0 .158.644c-.271.211-.206.738.207.694l2.516-.271a26.045 26.045 0 0 0 .4 5.252c.065.362.143.74.543.862a2.594 2.594 0 0 0 .676.048l.756.019 2.9.075a.4.4 0 0 0 .375-.492l-.7-4.9 3.6.211a.392.392 0 0 0 .34-.584zm-7.393 4.89c-.262-.007-.272.043-.321-.213-.039-.2-.073-.409-.106-.614a25.055 25.055 0 0 1-.281-4.985.39.39 0 0 0-.388-.389l-2.723.293a49.2 49.2 0 0 1 5.427-5.131 39.45 39.45 0 0 1 4.71 5.913l-3.308-.194a.394.394 0 0 0-.375.492l.7 4.914-2.074-.053zm-23.796-2.467a4.18 4.18 0 0 0-1.385-.039c-.289.014-.906 0-1.039-.339-.157-.4.652-.96.909-1.155.46-.349.959-.643 1.436-.968.786-.534 1.98-1.421 1.608-2.536-.385-1.152-1.83-.919-2.676-.522-.943.442-1.962 1.322-3.059 1.283a5.352 5.352 0 0 1 1.569-1.966c.692-.674 1.752-1.731 1.109-2.769a2.116 2.116 0 0 0-2.551-.543 6.385 6.385 0 0 0-2.221 1.646 13.276 13.276 0 0 1-1.742 1.638 14.433 14.433 0 0 0 .05-3.061 2.421 2.421 0 0 0-.39-1.444.918.918 0 0 0-1.309 0 4.08 4.08 0 0 0-.874 1.408 13.666 13.666 0 0 0-.644 1.642 13.016 13.016 0 0 0-.43 1.784 6.6 6.6 0 0 1-.259 1.6c-.239.532-1.12.437-1.6.471l-1.217.085-1 .071a12.935 12.935 0 0 0-.3-1.931.391.391 0 0 0-.272-.272 12.382 12.382 0 0 0-1.5-.308c-.053-.007-.1-.019-.158-.026a4.258 4.258 0 0 0-1.647-.058.912.912 0 0 0-.611.718.406.406 0 0 0-.052-.022 44.46 44.46 0 0 1-2.316-.82 53.038 53.038 0 0 0-1.916-11.813q-.4-1.352-.889-2.668c-.113-.3-.229-.6-.359-.891a.325.325 0 0 0-.5-.135.416.416 0 0 0-.169.527l.018.04.014.032.009.022a27.932 27.932 0 0 1 .678 1.874c.055.166.111.332.163.5a48.866 48.866 0 0 1 1.614 7.078c.263 1.7.439 3.4.548 5.114q-1.857-.749-3.635-1.655-1.969-1.01-3.837-2.209a29.8 29.8 0 0 1-8.211-7.267 13.874 13.874 0 0 1-2.422-5.329c-.1-.489-.849-.282-.75.207.732 3.591 3.027 6.614 5.686 9.039a42.224 42.224 0 0 0 9.761 6.544c.218.108.437.213.657.317q1.552.735 3.156 1.354l.348.131q1.066.4 2.153.752a.375.375 0 0 0 .179.015c-.028.425-.047.852-.071 1.277l-.071 1.222q-.172 3-.34 6l-.149 2.683a.421.421 0 0 0-.156-.05q-.775-.094-1.552-.207-.59-.084-1.177-.181a33.567 33.567 0 0 1-4.663-1.09 27.812 27.812 0 0 1-5.675-2.559 33.128 33.128 0 0 1-9.1-8.041 37.294 37.294 0 0 1-3.731-5.771c-.233-.443-.9-.05-.671.393a37.011 37.011 0 0 0 7.538 9.923 31.009 31.009 0 0 0 10.577 6.517 35.169 35.169 0 0 0 6.964 1.6c.495.069.991.136 1.486.2a.4.4 0 0 0 .116 0l-.037.657a.391.391 0 0 0 .389.389l2.481-.163c.652-.043 1.3-.086 1.955-.134a.907.907 0 0 0 .737-.3 1.2 1.2 0 0 0 .152-.772l-.014-1.308 8.179-1.411 4.127-.712c.673-.116 1.35-.219 2.021-.351a2.67 2.67 0 0 0 1.441-.666 1.334 1.334 0 0 0-.481-2.291zm-16.047 7.018a1.338 1.338 0 0 1-.3.016l-.515.035-1.228.082-2.088.14.037-.669.3-5.364.187-3.289.016-.324c.046-.926.074-1.859.16-2.78 0-.034.005-.068.008-.1a.6.6 0 0 1 .057-.283c.074-.088.212-.062.321-.059a11.1 11.1 0 0 1 1.298.119c.366.057.728.135 1.087.227a13.2 13.2 0 0 1 .242 1.677c.034.4.056.8.074 1.2.02.439.035.879.057 1.317l.057 1.173.157 3.222.056 1.141.02 1.908v.593zm16.163-5.562c-.2.482-.763.631-1.226.726-.6.123-1.212.213-1.818.318l-3.873.668-8.308 1.434q-.2-2.233-.394-4.467l-.121-2.49v-.082l-.027-.511.821-.058.9-.063c.528-.037 1.068-.046 1.591-.134a1.484 1.484 0 0 0 1.1-.714 3.687 3.687 0 0 0 .287-1.356 12.455 12.455 0 0 1 .849-3.22 8.993 8.993 0 0 1 .709-1.436c.065-.1.278-.431.431-.341.133.078.144.437.159.562a13.91 13.91 0 0 1-.105 4.074.394.394 0 0 0 .571.439c1.587-.74 2.44-2.363 3.877-3.3.574-.371 1.589-.79 2.183-.223.69.656-.809 1.828-1.235 2.242a4.37 4.37 0 0 0-1.54 2.527.387.387 0 0 0 .285.374 4.009 4.009 0 0 0 2.87-.7 9.935 9.935 0 0 1 1.411-.733 1.327 1.327 0 0 1 1.109-.013c.434.288.058.861-.2 1.13a6.719 6.719 0 0 1-1.241.944c-.452.3-.906.586-1.328.923a2.986 2.986 0 0 0-.99 1.143c-.372.969.607 1.542 1.433 1.607.476.046 2.251-.309 1.82.73z"></path><path d="M15.584 75.25a18.4 18.4 0 0 0 2.333 2.476 13.947 13.947 0 0 0 1.325 1.063c.591.406 1.021.081 1.472-.341a23.808 23.808 0 0 0 2.614-2.91l2.452 2.448a.393.393 0 0 0 .611-.078 10.114 10.114 0 0 0 1.3-6.113c-.053-.492-.831-.5-.777 0a9.412 9.412 0 0 1-.959 5.269l-2.39-2.386a.4.4 0 0 0-.611.078 22.79 22.79 0 0 1-2.289 2.657q-.29.288-.588.565c-.069.064-.18.221-.278.222-.116 0-.282-.165-.374-.235-.4-.3-.783-.625-1.153-.961a18.2 18.2 0 0 1-3.772-4.813 17.8 17.8 0 0 1-1.359-3.233c-.148-.476-.9-.273-.75.207a19.031 19.031 0 0 0 3.193 6.085z"></path><path d="m25.069 81.1-.564-3.169a.392.392 0 0 0-.478-.271.4.4 0 0 0-.272.478l.564 3.168a.392.392 0 0 0 .478.272.4.4 0 0 0 .272-.478zm.668 4.837a.4.4 0 0 0 .272-.478 6.869 6.869 0 0 1-.255-2.277.391.391 0 0 0-.389-.389.4.4 0 0 0-.389.389 7.77 7.77 0 0 0 .283 2.483.4.4 0 0 0 .478.272zm76.678 47.611q-.026-.824-.091-1.647a7.186 7.186 0 0 0-.183-1.578 1.015 1.015 0 0 0-.935-.707c-1.108-.129-2.23-.182-3.343-.272l-3.393-.273-3.779-.3-1.857-.15c-.29-.023-.587-.108-.783.157a.624.624 0 0 0-.032.678.374.374 0 0 0 .1.131l.153 3.789h-17a.432.432 0 0 0-.639 0H54.294a.389.389 0 0 0 0 .778H70.9a75.662 75.662 0 0 0 6.5 7.375.389.389 0 0 0 .55-.549 75.586 75.586 0 0 1-6.081-6.826h16.587a.473.473 0 0 0 .221.084q3.384.368 6.79.488 1.7.06 3.4.055.836 0 1.67-.019a3.631 3.631 0 0 0 1.351-.137.986.986 0 0 0 .527-1.077zm-.78.319c-.086.128-.385.1-.516.1a87.71 87.71 0 0 1-5.78-.027q-3.051-.11-6.089-.426a.336.336 0 0 0-.2-.131l-.162-3.985 11.284.909.64.051c.167.014.452-.018.567.131a1.239 1.239 0 0 1 .092.528q.045.441.079.884.054.7.082 1.394c.002.13.073.467.003.572zM79.363 61.562a.379.379 0 0 0-.038.032.336.336 0 0 0-.165.159c-.1.121-.192.258-.278.366q-.233.293-.467.582-.509.628-1.025 1.249-1.034 1.242-2.1 2.453-.534.606-1.076 1.2l-.5.55-.132.143c-.069-.075-.193-.194-.21-.214l-2.19-2.526c-.328-.379-.876.173-.55.549l1.179 1.361c.391.45.762.935 1.179 1.36a.706.706 0 0 0 1.105.06c.423-.423.813-.888 1.212-1.334q1.159-1.3 2.279-2.629.559-.666 1.109-1.34.276-.337.547-.676l.272-.34c.048-.061.131-.21.2-.292a.471.471 0 0 0 .22-.275.393.393 0 0 0-.571-.438zm-51.684 112.99a67.632 67.632 0 0 0-9-5.077 18.588 18.588 0 0 0-6.239-1.981 4.369 4.369 0 0 0-2.863.7 4.017 4.017 0 0 0-1.494 2.337 9.24 9.24 0 0 0 .1 4.424.3.3 0 0 0 .28.309 54.718 54.718 0 0 0 8.653.353c2.865-.027 5.729-.12 8.591-.251.592-.027 1.185-.055 1.777-.088a.392.392 0 0 0 .195-.726z"></path><path d="M40.948 173.778a71.466 71.466 0 0 0-2.728-2.012 66.712 66.712 0 0 0-5.943-3.794 31.375 31.375 0 0 0-3.235-1.591 11.628 11.628 0 0 0-2.889-.851 4.314 4.314 0 0 0-2.9.532 4.107 4.107 0 0 0-1.623 2.267 8.394 8.394 0 0 0-.344 2.628 8.825 8.825 0 0 0 .139 1.679c0 .028.008.056.014.084v.008a.319.319 0 0 0 .013.044.31.31 0 0 0 .295.228 33.638 33.638 0 0 0 3.762.58c1.6.178 3.205.3 4.81.413 2.859.191 5.723.315 8.587.4a208.6 208.6 0 0 0 1.768.046c.309.008.548-.448.274-.661z"></path><path d="m70.076 147.808-.542 2.2.312-.021 5.278-.359v-1.819h-5.048z" fill="#ffd869"></path><path d="M75.512 150.377a.4.4 0 0 0 .389-.388v-2.57a.36.36 0 0 0-.1-.263l-.012-.013-.008-.007a.359.359 0 0 0-.265-.106h-5.74a.4.4 0 0 0-.375.286q-.371 1.5-.742 3.011a.392.392 0 0 0 .375.491l5.667-.385zm-5.436-2.569h5.048v1.819l-5.278.359-.312.021q.272-1.099.542-2.199z"></path></svg>