<svg width="799" height="626" viewBox="0 0 799 626" fill="none" xmlns="http://www.w3.org/2000/svg">
<g clip-path="url(#clip0_321_923)">
<path d="M274.937 333.465C272.372 358.253 262.942 380.933 252.881 402.78C252.548 403.523 252.206 404.256 251.855 405H147.289C145.174 404.323 143.087 403.579 141.008 402.78C129.198 398.344 118.048 391.577 107.991 382.742C69.5216 348.551 54.7184 283.943 61.4047 226.05C65.5623 190.083 78.3583 153.36 103.276 133.989C116.432 123.743 133.332 120.412 148.477 124.22C148.873 124.309 149.269 124.42 149.674 124.52C162.704 128.139 174.312 137.131 180.918 151.618C192.796 177.65 185.723 209.898 179.883 238.872C174.061 267.846 170.902 302.526 187.802 323.895C182.222 303.636 187.73 279.469 201.057 265.77C211.127 255.435 225.147 251.561 237.934 254.769C239.158 255.091 240.364 255.457 241.552 255.901C244.422 256.938 247.19 258.368 249.803 260.164C269.736 273.896 277.808 305.523 274.937 333.465Z" fill="#FEC180"/>
<path d="M212.936 402.78C215.833 403.612 218.74 404.345 221.664 405H205.853C203.783 404.312 201.723 403.579 199.68 402.78C195.19 401.048 190.768 399.061 186.416 396.818C168.958 387.782 152.877 374.217 140.711 356.166C134.761 347.421 129.902 337.629 126.295 327.115C122.384 315.231 119.898 302.706 118.916 289.937C116.711 263.739 118.961 236.818 123.163 211.086C127.5 184.416 134.501 158.512 144.005 133.967C145.148 131.025 146.329 128.102 147.55 125.197C147.634 124.958 147.761 124.746 147.922 124.576C148.083 124.407 148.272 124.285 148.477 124.22C148.892 124.121 149.323 124.229 149.674 124.52C150.095 124.818 150.408 125.305 150.547 125.879C150.686 126.453 150.641 127.071 150.421 127.606C140.622 151.18 133.194 176.143 128.302 201.939C123.514 227.105 120.797 253.437 121.724 279.313C122.605 303.492 127.726 327.27 139.343 347.041C149.953 365.092 164.603 379.323 180.81 389.014C191.068 395.069 201.844 399.686 212.936 402.78Z" fill="white"/>
<path d="M247.635 405H242.973C242.451 404.267 241.947 403.523 241.453 402.78C230.835 386.865 223.642 367.905 220.539 347.652C216.771 322.377 219.702 296.278 228.899 273.219C231.465 266.753 234.488 260.579 237.934 254.769C239.158 255.091 240.364 255.457 241.551 255.901C232.488 270.714 226.392 287.961 223.761 306.234C221.413 323.356 222.194 340.909 226.045 357.611C229.897 374.314 236.723 389.745 246.024 402.78C246.546 403.523 247.086 404.267 247.635 405Z" fill="white"/>
<path d="M667.554 386.121C668.231 392.663 670.72 398.648 673.375 404.414C673.463 404.61 673.553 404.804 673.646 405H701.243C701.801 404.821 702.352 404.625 702.9 404.414C706.017 403.243 708.96 401.457 711.614 399.126C721.767 390.102 725.674 373.051 723.909 357.772C722.812 348.279 719.435 338.588 712.859 333.475C709.288 330.792 705.027 329.871 700.929 330.897C700.825 330.921 700.72 330.95 700.613 330.976C698.908 331.383 697.291 332.231 695.87 333.463C694.449 334.696 693.255 336.285 692.368 338.128C689.233 344.998 691.099 353.509 692.641 361.156C694.177 368.803 695.011 377.955 690.551 383.595C691.204 381.236 691.337 378.706 690.935 376.263C690.533 373.82 689.612 371.553 688.264 369.695C686.917 367.838 685.193 366.456 683.27 365.693C681.346 364.929 679.293 364.811 677.32 365.351C676.997 365.436 676.679 365.533 676.365 365.65C675.607 365.924 674.877 366.301 674.187 366.775C668.927 370.399 666.796 378.746 667.554 386.121Z" fill="#E29F58"/>
<path d="M683.917 404.414C683.153 404.634 682.386 404.827 681.614 405H685.787C686.333 404.818 686.877 404.625 687.416 404.414C688.601 403.957 689.768 403.433 690.916 402.841C695.576 400.507 699.712 396.828 702.979 392.112C704.549 389.804 705.832 387.22 706.784 384.445C707.816 381.308 708.472 378.003 708.731 374.633C709.204 367.666 708.827 360.651 707.61 353.823C706.465 346.784 704.618 339.947 702.11 333.469C701.808 332.693 701.496 331.922 701.174 331.155C701.152 331.092 701.118 331.036 701.076 330.991C701.033 330.946 700.983 330.914 700.929 330.897C700.82 330.871 700.706 330.899 700.613 330.976C700.502 331.055 700.42 331.183 700.383 331.335C700.346 331.486 700.358 331.65 700.416 331.791C703.002 338.012 704.963 344.6 706.254 351.408C707.584 358.086 708.168 364.956 707.99 371.829C707.895 378.221 706.278 384.437 703.34 389.704C700.483 394.446 696.725 398.25 692.396 400.781C689.689 402.379 686.845 403.598 683.917 404.414Z" fill="white"/>
<path d="M674.76 405H675.99C676.128 404.807 676.261 404.61 676.391 404.414C679.193 400.214 681.092 395.21 681.911 389.865C682.905 383.194 682.131 376.306 679.704 370.221C679.027 368.514 678.229 366.885 677.32 365.351C676.997 365.436 676.679 365.533 676.365 365.65C678.757 369.56 680.366 374.111 681.06 378.934C681.68 383.453 681.474 388.085 680.457 392.493C679.441 396.901 677.64 400.974 675.185 404.414C675.047 404.61 674.905 404.807 674.76 405Z" fill="white"/>
<path d="M418.81 235.907H332.438L331.523 203.147C331.483 201.727 331.693 200.313 332.139 199.003C332.585 197.693 333.256 196.517 334.105 195.557C334.954 194.597 335.962 193.876 337.059 193.442C338.156 193.009 339.316 192.874 340.459 193.047L390.722 200.639H390.728C398.179 200.664 405.319 204.331 410.583 210.838C415.846 217.345 418.805 226.16 418.81 235.352V235.907Z" fill="#6C63FF"/>
<path d="M380.314 119.702H320.074C319.273 119.702 318.48 119.896 317.739 120.274C316.999 120.652 316.327 121.207 315.76 121.905C315.194 122.604 314.744 123.434 314.438 124.347C314.131 125.26 313.974 126.239 313.974 127.227V201.54C313.974 202.529 314.131 203.507 314.438 204.42C314.744 205.334 315.194 206.163 315.76 206.862C316.327 207.561 316.999 208.115 317.739 208.493C318.48 208.871 319.273 209.066 320.074 209.066H380.314C381.115 209.066 381.908 208.871 382.649 208.493C383.389 208.115 384.061 207.561 384.628 206.862C385.194 206.163 385.644 205.334 385.95 204.42C386.257 203.507 386.414 202.529 386.414 201.54V127.227C386.414 126.239 386.257 125.26 385.95 124.347C385.644 123.434 385.194 122.604 384.628 121.905C384.061 121.207 383.389 120.652 382.649 120.274C381.908 119.896 381.115 119.702 380.314 119.702Z" fill="#FEC180"/>
<path d="M366.747 175.27L338.305 182.103C336.618 182.506 334.87 182.067 333.445 180.882C332.02 179.697 331.035 177.863 330.704 175.783L328.518 161.933C328.191 159.852 328.547 157.696 329.508 155.938C330.468 154.18 331.955 152.964 333.641 152.557L362.083 145.724C363.77 145.321 365.518 145.76 366.943 146.945C368.368 148.13 369.353 149.964 369.684 152.044L371.87 165.894C372.197 167.975 371.841 170.131 370.88 171.889C369.92 173.647 368.433 174.863 366.747 175.27Z" fill="#3F3D56"/>
<path d="M361.057 158.908L339.351 164.122C338.954 164.218 338.543 164.115 338.207 163.836C337.872 163.557 337.64 163.125 337.563 162.635C337.485 162.146 337.569 161.638 337.795 161.224C338.021 160.811 338.371 160.524 338.768 160.429L360.474 155.215C360.871 155.119 361.282 155.222 361.618 155.501C361.953 155.78 362.185 156.212 362.262 156.702C362.339 157.192 362.256 157.699 362.03 158.113C361.804 158.527 361.454 158.813 361.057 158.908Z" fill="white"/>
<path d="M356.838 166.63L345.611 169.327C345.214 169.422 344.802 169.319 344.467 169.04C344.131 168.762 343.899 168.33 343.822 167.84C343.745 167.35 343.828 166.843 344.054 166.429C344.28 166.015 344.631 165.729 345.028 165.634L356.255 162.937C356.451 162.889 356.653 162.89 356.85 162.94C357.046 162.989 357.232 163.085 357.398 163.223C357.565 163.361 357.707 163.538 357.818 163.744C357.928 163.95 358.005 164.181 358.043 164.424C358.081 164.666 358.08 164.916 358.041 165.158C358.001 165.4 357.923 165.63 357.811 165.835C357.699 166.04 357.555 166.215 357.388 166.352C357.221 166.488 357.034 166.583 356.838 166.63Z" fill="white"/>
<path d="M386.414 127.227V137.104H313.974V127.227C313.974 126.239 314.131 125.26 314.438 124.347C314.744 123.434 315.194 122.604 315.76 121.905C316.327 121.207 316.999 120.652 317.739 120.274C318.48 119.896 319.273 119.702 320.074 119.702H380.314C381.115 119.702 381.908 119.896 382.649 120.274C383.389 120.652 384.061 121.207 384.628 121.905C385.194 122.604 385.644 123.434 385.95 124.347C386.257 125.26 386.414 126.239 386.414 127.227Z" fill="#E29F58"/>
<path d="M531.07 140.197C530.652 138.532 529.943 137 528.993 135.709C528.043 134.419 526.875 133.401 525.571 132.727C524.268 132.053 522.861 131.74 521.448 131.81C520.036 131.88 518.654 132.331 517.398 133.132L434.522 96.4507L430.872 121.991L513.484 150.016C514.714 152.529 516.648 154.398 518.92 155.269C521.193 156.141 523.645 155.953 525.813 154.743C527.98 153.533 529.713 151.383 530.682 148.703C531.651 146.022 531.789 142.995 531.07 140.197Z" fill="#FFB8B8"/>
<path opacity="0.2" d="M531.07 140.197C530.652 138.532 529.943 137 528.993 135.709C528.043 134.419 526.875 133.401 525.571 132.727C524.268 132.053 522.861 131.74 521.448 131.81C520.036 131.88 518.654 132.331 517.398 133.132L434.522 96.4507L430.872 121.991L513.484 150.016C514.714 152.529 516.648 154.398 518.92 155.269C521.193 156.141 523.645 155.953 525.813 154.743C527.98 153.533 529.713 151.383 530.682 148.703C531.651 146.022 531.789 142.995 531.07 140.197Z" fill="black"/>
<path d="M449.232 101.105L441.406 126.327C441.184 127.044 440.838 127.694 440.394 128.232C439.949 128.77 439.415 129.184 438.83 129.445C438.244 129.706 437.619 129.808 436.998 129.744C436.378 129.68 435.775 129.452 435.232 129.075L416.212 115.869C413.243 114.442 410.853 111.622 409.567 108.025C408.28 104.428 408.203 100.349 409.351 96.6814C410.499 93.0141 412.778 90.0579 415.69 88.4609C418.602 86.864 421.909 86.7565 424.885 88.1622L446.124 93.9732C446.732 94.1399 447.304 94.4662 447.801 94.93C448.297 95.3938 448.707 95.9842 449.002 96.661C449.297 97.3378 449.47 98.085 449.51 98.8519C449.55 99.6187 449.455 100.387 449.232 101.105Z" fill="#5369A2"/>
<path d="M537.594 163.551L507.898 180.203L511.797 198.31C519.326 233.276 521.324 269.703 517.682 305.602L539.394 311.196L557.391 254.58L551.092 190.194L537.594 163.551Z" fill="#6C63FF"/>
<path d="M595.861 247.365C576.35 247.365 560.449 264.862 559.678 286.773H632.044C631.273 264.862 615.372 247.365 595.861 247.365Z" fill="#3F3D56"/>
<path d="M580.672 251.141C579.657 152.232 533.994 161.331 533.994 161.331C533.994 161.331 534.848 192.118 535.259 193.076C564.357 260.992 516.334 340.613 455.206 325.965C454.053 325.689 452.946 325.409 451.884 325.125C444.138 323.13 437.3 317.57 432.759 309.577C428.218 301.583 426.316 291.756 427.44 282.094C433.462 222.442 403.512 223.497 403.512 223.497H359.718L336.975 198.247C336.172 197.355 335.205 196.72 334.157 196.397C333.109 196.074 332.013 196.072 330.965 196.392C329.916 196.712 328.947 197.344 328.143 198.232C327.338 199.121 326.722 200.239 326.348 201.489L323.423 211.286C323.423 211.286 280.228 216.837 283.828 269.012H297.182C297.15 270.494 297.198 271.978 297.326 273.452L396.988 272.453C402.83 272.394 407.987 278.234 408.011 285.44C408.017 287.195 407.736 288.933 407.185 290.551C406.634 292.168 405.824 293.632 404.804 294.854C403.784 296.077 402.574 297.033 401.247 297.665C399.921 298.298 398.504 298.594 397.083 298.535L381.015 297.875C376.066 325.072 388.214 343.389 401.6 354.906C414.202 365.593 429.157 371.259 444.45 371.142H488.101C544.793 371.142 554.692 312.306 554.692 312.306C584.388 296.764 580.672 251.141 580.672 251.141Z" fill="#3F3D56"/>
<path d="M593.161 403.335C621.117 403.335 643.78 375.378 643.78 340.891C643.78 306.404 621.117 278.448 593.161 278.448C565.206 278.448 542.543 306.404 542.543 340.891C542.543 375.378 565.206 403.335 593.161 403.335Z" fill="#3F3D56"/>
<path d="M593.161 356.196C600.013 356.196 605.568 349.344 605.568 340.891C605.568 332.439 600.013 325.586 593.161 325.586C586.31 325.586 580.755 332.439 580.755 340.891C580.755 349.344 586.31 356.196 593.161 356.196Z" fill="white"/>
<path d="M337.596 403.335C369.776 403.335 395.863 371.153 395.863 331.455C395.863 291.757 369.776 259.576 337.596 259.576C305.416 259.576 279.328 291.757 279.328 331.455C279.328 371.153 305.416 403.335 337.596 403.335Z" fill="#3F3D56"/>
<path d="M337.596 349.073C345.483 349.073 351.877 341.185 351.877 331.455C351.877 321.725 345.483 313.838 337.596 313.838C329.708 313.838 323.314 321.725 323.314 331.455C323.314 341.185 329.708 349.073 337.596 349.073Z" fill="white"/>
<path d="M507.982 185.123L497.297 149.323C496.741 147.457 496.487 145.474 496.551 143.487C496.616 141.5 496.997 139.549 497.672 137.744C498.348 135.939 499.306 134.316 500.49 132.967C501.674 131.618 503.062 130.571 504.575 129.884L535.207 115.973C537.868 114.764 540.696 114.213 543.53 114.353C546.363 114.492 549.147 115.319 551.722 116.785C554.296 118.252 556.612 120.33 558.535 122.9C560.459 125.471 561.954 128.483 562.934 131.766C563.817 134.713 564.268 137.83 564.266 140.972C564.255 144.961 563.523 148.897 562.124 152.494C560.725 156.09 558.694 159.257 556.178 161.764C554.361 163.562 552.319 164.983 550.131 165.97L507.982 185.123Z" fill="#3F3D56"/>
<path d="M563.816 140.972C563.814 144.88 563.101 148.737 561.731 152.261C560.36 155.784 558.367 158.883 555.897 161.331C552.108 160.098 548.582 157.862 545.565 154.778C542.547 151.694 540.11 147.837 538.423 143.474C536.736 139.111 535.839 134.347 535.796 129.513C535.752 124.679 536.562 119.892 538.17 115.484C541.256 114.655 544.454 114.691 547.528 115.587C550.602 116.483 553.475 118.217 555.934 120.661C558.394 123.106 560.379 126.199 561.743 129.714C563.107 133.228 563.815 137.075 563.816 140.972Z" fill="#6C63FF"/>
<path d="M291.477 276.227C298.435 276.227 304.075 267.778 304.075 257.355C304.075 246.933 298.435 238.484 291.477 238.484C284.519 238.484 278.879 246.933 278.879 257.355C278.879 267.778 284.519 276.227 291.477 276.227Z" fill="#6C63FF"/>
<path d="M458.01 324.157H469.042L474.291 288.859L458.008 288.86L458.01 324.157Z" fill="#FFB8B8"/>
<path d="M455.195 319.714L476.922 319.713H476.923C478.741 319.713 480.541 320.155 482.221 321.013C483.901 321.871 485.428 323.129 486.713 324.715C487.999 326.302 489.019 328.185 489.715 330.257C490.411 332.329 490.769 334.55 490.769 336.793V337.348L455.196 337.35L455.195 319.714Z" fill="#2F2E41"/>
<path d="M470.815 309.67C470.687 309.67 470.558 309.662 470.428 309.647L455.16 308.276C454.543 308.205 453.947 307.96 453.418 307.561C452.889 307.161 452.442 306.617 452.111 305.97C451.78 305.323 451.573 304.591 451.508 303.831C451.442 303.07 451.519 302.301 451.732 301.583L472.166 244.951C472.312 244.446 472.371 243.909 472.341 243.375C472.31 242.84 472.191 242.319 471.989 241.844C471.788 241.363 471.506 240.941 471.164 240.604C470.821 240.268 470.424 240.024 469.999 239.89C460.391 236.792 435.739 228.542 414.399 218.889C405.256 214.753 399.498 208.777 397.284 201.125C394.366 191.038 398.683 181.838 398.868 181.452L399.013 181.15L419.094 183.402L440.863 185.686L488.569 217.244C492.566 219.91 495.602 224.337 497.073 229.641C498.544 234.946 498.34 240.739 496.504 245.867L474.51 306.709C474.192 307.59 473.674 308.339 473.018 308.864C472.362 309.39 471.597 309.67 470.815 309.67Z" fill="#2F2E41"/>
<path d="M422.585 71.3592C434.792 71.3592 444.687 59.1521 444.687 44.0938C444.687 29.0355 434.792 16.8284 422.585 16.8284C410.379 16.8284 400.483 29.0355 400.483 44.0938C400.483 59.1521 410.379 71.3592 422.585 71.3592Z" fill="#FFB8B8"/>
<path d="M451.71 327.488H462.743L467.992 292.19L451.709 292.191L451.71 327.488Z" fill="#FFB8B8"/>
<path d="M448.896 323.044L470.623 323.043H470.624C472.442 323.043 474.242 323.485 475.922 324.343C477.602 325.202 479.128 326.46 480.414 328.046C481.7 329.632 482.72 331.515 483.416 333.587C484.111 335.659 484.47 337.881 484.47 340.124V340.679L448.897 340.68L448.896 323.044Z" fill="#2F2E41"/>
<path d="M464.516 313C464.388 313 464.258 312.993 464.129 312.977L448.861 311.606C448.244 311.535 447.648 311.291 447.119 310.891C446.59 310.491 446.143 309.947 445.812 309.3C445.481 308.654 445.274 307.922 445.209 307.161C445.143 306.4 445.22 305.631 445.433 304.913L465.866 248.281C466.012 247.776 466.072 247.24 466.042 246.705C466.011 246.17 465.891 245.649 465.69 245.174C465.489 244.694 465.207 244.271 464.864 243.935C464.521 243.598 464.125 243.355 463.7 243.221C454.092 240.122 429.44 231.872 408.1 222.22C398.957 218.084 393.199 212.107 390.985 204.456C388.067 194.368 392.384 185.169 392.569 184.783L392.714 184.48L412.795 186.732L434.564 189.016L482.269 220.574C486.267 223.241 489.303 227.667 490.774 232.972C492.244 238.276 492.041 244.069 490.205 249.197L468.211 310.04C467.893 310.921 467.375 311.669 466.719 312.195C466.063 312.72 465.298 313 464.516 313Z" fill="#2F2E41"/>
<path d="M429.402 86.8198L406.005 76.8289C406.005 76.8289 391.317 90.7496 398.373 125.284C402.057 143.104 400.984 161.915 395.313 178.924C394.631 181.029 393.843 183.079 392.957 185.064C392.957 185.064 419.053 223.918 443.35 195.055L433.901 138.995C433.901 138.995 448.749 101.806 429.402 86.8198Z" fill="#5369A2"/>
<path d="M425.329 72.2865C422.184 66.478 419.701 58.4239 423.165 52.8974C426.583 47.4421 433.326 48.2458 438.562 45.8319C445.855 42.4698 450.084 31.9008 448.765 22.4357C447.446 12.9705 441.287 5.12416 433.949 1.91369C426.612 -1.29678 418.338 -0.252657 411.153 3.44439C402.307 7.99551 394.72 16.7993 391.538 27.9515C388.356 39.1036 390.057 52.4938 396.658 61.0656C403.734 70.2554 414.84 72.7046 425.114 72.556" fill="#2F2E41"/>
<path d="M404.77 22.7394C400.806 26.7201 394.759 24.952 390.504 21.4585C386.249 17.9649 382.796 12.9903 378.192 10.2512C370.076 5.42226 360.263 8.63238 352.364 13.9813C344.465 19.3301 337.463 26.7198 329.119 30.9173C320.776 35.1148 310.128 35.3222 303.81 27.3964C302.256 32.9534 302.128 38.9669 303.446 44.6163C304.764 50.2657 307.463 55.2759 311.174 58.9634C314.886 62.6508 319.429 64.8359 324.184 65.2204C328.939 65.6049 333.675 64.1702 337.745 61.112C346.887 54.2423 351.937 39.8383 362.191 36.0465C367.865 33.9483 373.958 35.6383 379.693 37.4686C385.428 39.299 391.407 41.2768 397.195 39.7186C402.982 38.1603 408.396 31.7445 407.659 24.4937L404.77 22.7394Z" fill="#2F2E41"/>
<path d="M529.971 139.087C529.389 137.498 528.532 136.086 527.46 134.949C526.388 133.813 525.127 132.981 523.767 132.511C522.406 132.04 520.978 131.944 519.583 132.228C518.189 132.513 516.862 133.171 515.696 134.156L429.785 110.37L428.717 136.271L513.501 151.508C514.973 153.814 517.079 155.374 519.421 155.893C521.763 156.412 524.178 155.853 526.208 154.322C528.238 152.791 529.742 150.394 530.436 147.586C531.129 144.778 530.964 141.754 529.971 139.087Z" fill="#FFB8B8"/>
<path d="M444.848 112.749L439.605 138.97C439.455 139.716 439.178 140.413 438.79 141.015C438.403 141.617 437.915 142.108 437.359 142.456C436.804 142.804 436.194 143 435.572 143.032C434.95 143.063 434.329 142.928 433.753 142.637L413.557 132.426C410.465 131.465 407.809 129.03 406.171 125.656C404.533 122.281 404.048 118.243 404.82 114.427C405.593 110.611 407.561 107.33 410.293 105.302C413.025 103.274 416.297 102.666 419.392 103.611L441.05 106.145C441.67 106.218 442.27 106.455 442.81 106.839C443.349 107.224 443.815 107.748 444.175 108.374C444.535 109.001 444.782 109.716 444.898 110.471C445.014 111.226 444.997 112.003 444.848 112.749Z" fill="#5369A2"/>
<path d="M520.046 159.666C523.525 159.666 526.345 156.187 526.345 151.895C526.345 147.603 523.525 144.124 520.046 144.124C516.567 144.124 513.747 147.603 513.747 151.895C513.747 156.187 516.567 159.666 520.046 159.666Z" fill="#6C63FF"/>
</g>
<path d="M147.332 452.1C149.299 452.467 150.915 453.45 152.182 455.05C153.449 456.65 154.082 458.483 154.082 460.55C154.082 462.417 153.615 464.067 152.682 465.5C151.782 466.9 150.465 468 148.732 468.8C146.999 469.6 144.949 470 142.582 470H127.532V435.1H141.932C144.299 435.1 146.332 435.483 148.032 436.25C149.765 437.017 151.065 438.083 151.932 439.45C152.832 440.817 153.282 442.367 153.282 444.1C153.282 446.133 152.732 447.833 151.632 449.2C150.565 450.567 149.132 451.533 147.332 452.1ZM134.532 449.5H140.932C142.599 449.5 143.882 449.133 144.782 448.4C145.682 447.633 146.132 446.55 146.132 445.15C146.132 443.75 145.682 442.667 144.782 441.9C143.882 441.133 142.599 440.75 140.932 440.75H134.532V449.5ZM141.582 464.3C143.282 464.3 144.599 463.9 145.532 463.1C146.499 462.3 146.982 461.167 146.982 459.7C146.982 458.2 146.482 457.033 145.482 456.2C144.482 455.333 143.132 454.9 141.432 454.9H134.532V464.3H141.582ZM186.911 455.55C186.911 456.55 186.844 457.45 186.711 458.25H166.461C166.628 460.25 167.328 461.817 168.561 462.95C169.794 464.083 171.311 464.65 173.111 464.65C175.711 464.65 177.561 463.533 178.661 461.3H186.211C185.411 463.967 183.878 466.167 181.611 467.9C179.344 469.6 176.561 470.45 173.261 470.45C170.594 470.45 168.194 469.867 166.061 468.7C163.961 467.5 162.311 465.817 161.111 463.65C159.944 461.483 159.361 458.983 159.361 456.15C159.361 453.283 159.944 450.767 161.111 448.6C162.278 446.433 163.911 444.767 166.011 443.6C168.111 442.433 170.528 441.85 173.261 441.85C175.894 441.85 178.244 442.417 180.311 443.55C182.411 444.683 184.028 446.3 185.161 448.4C186.328 450.467 186.911 452.85 186.911 455.55ZM179.661 453.55C179.628 451.75 178.978 450.317 177.711 449.25C176.444 448.15 174.894 447.6 173.061 447.6C171.328 447.6 169.861 448.133 168.661 449.2C167.494 450.233 166.778 451.683 166.511 453.55H179.661ZM220.02 442.3L202.87 483.1H195.42L201.42 469.3L190.32 442.3H198.17L205.32 461.65L212.57 442.3H220.02ZM237.594 470.45C234.927 470.45 232.527 469.867 230.394 468.7C228.26 467.5 226.577 465.817 225.344 463.65C224.144 461.483 223.544 458.983 223.544 456.15C223.544 453.317 224.16 450.817 225.394 448.65C226.66 446.483 228.377 444.817 230.544 443.65C232.71 442.45 235.127 441.85 237.794 441.85C240.46 441.85 242.877 442.45 245.044 443.65C247.21 444.817 248.91 446.483 250.144 448.65C251.41 450.817 252.044 453.317 252.044 456.15C252.044 458.983 251.394 461.483 250.094 463.65C248.827 465.817 247.094 467.5 244.894 468.7C242.727 469.867 240.294 470.45 237.594 470.45ZM237.594 464.35C238.86 464.35 240.044 464.05 241.144 463.45C242.277 462.817 243.177 461.883 243.844 460.65C244.51 459.417 244.844 457.917 244.844 456.15C244.844 453.517 244.144 451.5 242.744 450.1C241.377 448.667 239.694 447.95 237.694 447.95C235.694 447.95 234.01 448.667 232.644 450.1C231.31 451.5 230.644 453.517 230.644 456.15C230.644 458.783 231.294 460.817 232.594 462.25C233.927 463.65 235.594 464.35 237.594 464.35ZM274.029 441.9C277.329 441.9 279.995 442.95 282.029 445.05C284.062 447.117 285.079 450.017 285.079 453.75V470H278.079V454.7C278.079 452.5 277.529 450.817 276.429 449.65C275.329 448.45 273.829 447.85 271.929 447.85C269.995 447.85 268.462 448.45 267.329 449.65C266.229 450.817 265.679 452.5 265.679 454.7V470H258.679V442.3H265.679V445.75C266.612 444.55 267.795 443.617 269.229 442.95C270.695 442.25 272.295 441.9 274.029 441.9ZM291.435 456.05C291.435 453.25 291.985 450.767 293.085 448.6C294.218 446.433 295.752 444.767 297.685 443.6C299.618 442.433 301.768 441.85 304.135 441.85C305.935 441.85 307.652 442.25 309.285 443.05C310.918 443.817 312.218 444.85 313.185 446.15V433H320.285V470H313.185V465.9C312.318 467.267 311.102 468.367 309.535 469.2C307.968 470.033 306.152 470.45 304.085 470.45C301.752 470.45 299.618 469.85 297.685 468.65C295.752 467.45 294.218 465.767 293.085 463.6C291.985 461.4 291.435 458.883 291.435 456.05ZM313.235 456.15C313.235 454.45 312.902 453 312.235 451.8C311.568 450.567 310.668 449.633 309.535 449C308.402 448.333 307.185 448 305.885 448C304.585 448 303.385 448.317 302.285 448.95C301.185 449.583 300.285 450.517 299.585 451.75C298.918 452.95 298.585 454.383 298.585 456.05C298.585 457.717 298.918 459.183 299.585 460.45C300.285 461.683 301.185 462.633 302.285 463.3C303.418 463.967 304.618 464.3 305.885 464.3C307.185 464.3 308.402 463.983 309.535 463.35C310.668 462.683 311.568 461.75 312.235 460.55C312.902 459.317 313.235 457.85 313.235 456.15ZM361.836 452.1C363.803 452.467 365.419 453.45 366.686 455.05C367.953 456.65 368.586 458.483 368.586 460.55C368.586 462.417 368.119 464.067 367.186 465.5C366.286 466.9 364.969 468 363.236 468.8C361.503 469.6 359.453 470 357.086 470H342.036V435.1H356.436C358.803 435.1 360.836 435.483 362.536 436.25C364.269 437.017 365.569 438.083 366.436 439.45C367.336 440.817 367.786 442.367 367.786 444.1C367.786 446.133 367.236 447.833 366.136 449.2C365.069 450.567 363.636 451.533 361.836 452.1ZM349.036 449.5H355.436C357.103 449.5 358.386 449.133 359.286 448.4C360.186 447.633 360.636 446.55 360.636 445.15C360.636 443.75 360.186 442.667 359.286 441.9C358.386 441.133 357.103 440.75 355.436 440.75H349.036V449.5ZM356.086 464.3C357.786 464.3 359.103 463.9 360.036 463.1C361.003 462.3 361.486 461.167 361.486 459.7C361.486 458.2 360.986 457.033 359.986 456.2C358.986 455.333 357.636 454.9 355.936 454.9H349.036V464.3H356.086ZM387.965 470.45C385.298 470.45 382.898 469.867 380.765 468.7C378.632 467.5 376.948 465.817 375.715 463.65C374.515 461.483 373.915 458.983 373.915 456.15C373.915 453.317 374.532 450.817 375.765 448.65C377.032 446.483 378.748 444.817 380.915 443.65C383.082 442.45 385.498 441.85 388.165 441.85C390.832 441.85 393.248 442.45 395.415 443.65C397.582 444.817 399.282 446.483 400.515 448.65C401.782 450.817 402.415 453.317 402.415 456.15C402.415 458.983 401.765 461.483 400.465 463.65C399.198 465.817 397.465 467.5 395.265 468.7C393.098 469.867 390.665 470.45 387.965 470.45ZM387.965 464.35C389.232 464.35 390.415 464.05 391.515 463.45C392.648 462.817 393.548 461.883 394.215 460.65C394.882 459.417 395.215 457.917 395.215 456.15C395.215 453.517 394.515 451.5 393.115 450.1C391.748 448.667 390.065 447.95 388.065 447.95C386.065 447.95 384.382 448.667 383.015 450.1C381.682 451.5 381.015 453.517 381.015 456.15C381.015 458.783 381.665 460.817 382.965 462.25C384.298 463.65 385.965 464.35 387.965 464.35ZM435.2 442.3V470H428.15V466.5C427.25 467.7 426.066 468.65 424.6 469.35C423.166 470.017 421.6 470.35 419.9 470.35C417.733 470.35 415.816 469.9 414.15 469C412.483 468.067 411.166 466.717 410.2 464.95C409.266 463.15 408.8 461.017 408.8 458.55V442.3H415.8V457.55C415.8 459.75 416.35 461.45 417.45 462.65C418.55 463.817 420.05 464.4 421.95 464.4C423.883 464.4 425.4 463.817 426.5 462.65C427.6 461.45 428.15 459.75 428.15 457.55V442.3H435.2ZM458.956 441.9C462.256 441.9 464.923 442.95 466.956 445.05C468.99 447.117 470.006 450.017 470.006 453.75V470H463.006V454.7C463.006 452.5 462.456 450.817 461.356 449.65C460.256 448.45 458.756 447.85 456.856 447.85C454.923 447.85 453.39 448.45 452.256 449.65C451.156 450.817 450.606 452.5 450.606 454.7V470H443.606V442.3H450.606V445.75C451.54 444.55 452.723 443.617 454.156 442.95C455.623 442.25 457.223 441.9 458.956 441.9ZM476.363 456.05C476.363 453.25 476.913 450.767 478.013 448.6C479.146 446.433 480.68 444.767 482.613 443.6C484.546 442.433 486.696 441.85 489.063 441.85C490.863 441.85 492.58 442.25 494.213 443.05C495.846 443.817 497.146 444.85 498.113 446.15V433H505.213V470H498.113V465.9C497.246 467.267 496.03 468.367 494.463 469.2C492.896 470.033 491.08 470.45 489.013 470.45C486.68 470.45 484.546 469.85 482.613 468.65C480.68 467.45 479.146 465.767 478.013 463.6C476.913 461.4 476.363 458.883 476.363 456.05ZM498.163 456.15C498.163 454.45 497.83 453 497.163 451.8C496.496 450.567 495.596 449.633 494.463 449C493.33 448.333 492.113 448 490.813 448C489.513 448 488.313 448.317 487.213 448.95C486.113 449.583 485.213 450.517 484.513 451.75C483.846 452.95 483.513 454.383 483.513 456.05C483.513 457.717 483.846 459.183 484.513 460.45C485.213 461.683 486.113 462.633 487.213 463.3C488.346 463.967 489.546 464.3 490.813 464.3C492.113 464.3 493.33 463.983 494.463 463.35C495.596 462.683 496.496 461.75 497.163 460.55C497.83 459.317 498.163 457.85 498.163 456.15ZM511.75 456.05C511.75 453.25 512.3 450.767 513.4 448.6C514.533 446.433 516.05 444.767 517.95 443.6C519.883 442.433 522.033 441.85 524.4 441.85C526.466 441.85 528.266 442.267 529.8 443.1C531.366 443.933 532.616 444.983 533.55 446.25V442.3H540.6V470H533.55V465.95C532.65 467.25 531.4 468.333 529.8 469.2C528.233 470.033 526.416 470.45 524.35 470.45C522.016 470.45 519.883 469.85 517.95 468.65C516.05 467.45 514.533 465.767 513.4 463.6C512.3 461.4 511.75 458.883 511.75 456.05ZM533.55 456.15C533.55 454.45 533.216 453 532.55 451.8C531.883 450.567 530.983 449.633 529.85 449C528.716 448.333 527.5 448 526.2 448C524.9 448 523.7 448.317 522.6 448.95C521.5 449.583 520.6 450.517 519.9 451.75C519.233 452.95 518.9 454.383 518.9 456.05C518.9 457.717 519.233 459.183 519.9 460.45C520.6 461.683 521.5 462.633 522.6 463.3C523.733 463.967 524.933 464.3 526.2 464.3C527.5 464.3 528.716 463.983 529.85 463.35C530.983 462.683 531.883 461.75 532.55 460.55C533.216 459.317 533.55 457.85 533.55 456.15ZM555.936 446.6C556.836 445.133 558.003 443.983 559.436 443.15C560.903 442.317 562.57 441.9 564.436 441.9V449.25H562.586C560.386 449.25 558.72 449.767 557.586 450.8C556.486 451.833 555.936 453.633 555.936 456.2V470H548.936V442.3H555.936V446.6ZM574.201 439C572.968 439 571.935 438.617 571.101 437.85C570.301 437.05 569.901 436.067 569.901 434.9C569.901 433.733 570.301 432.767 571.101 432C571.935 431.2 572.968 430.8 574.201 430.8C575.435 430.8 576.451 431.2 577.251 432C578.085 432.767 578.501 433.733 578.501 434.9C578.501 436.067 578.085 437.05 577.251 437.85C576.451 438.617 575.435 439 574.201 439ZM577.651 442.3V470H570.651V442.3H577.651ZM611.817 455.55C611.817 456.55 611.751 457.45 611.617 458.25H591.367C591.534 460.25 592.234 461.817 593.467 462.95C594.701 464.083 596.217 464.65 598.017 464.65C600.617 464.65 602.467 463.533 603.567 461.3H611.117C610.317 463.967 608.784 466.167 606.517 467.9C604.251 469.6 601.467 470.45 598.167 470.45C595.501 470.45 593.101 469.867 590.967 468.7C588.867 467.5 587.217 465.817 586.017 463.65C584.851 461.483 584.267 458.983 584.267 456.15C584.267 453.283 584.851 450.767 586.017 448.6C587.184 446.433 588.817 444.767 590.917 443.6C593.017 442.433 595.434 441.85 598.167 441.85C600.801 441.85 603.151 442.417 605.217 443.55C607.317 444.683 608.934 446.3 610.067 448.4C611.234 450.467 611.817 452.85 611.817 455.55ZM604.567 453.55C604.534 451.75 603.884 450.317 602.617 449.25C601.351 448.15 599.801 447.6 597.967 447.6C596.234 447.6 594.767 448.133 593.567 449.2C592.401 450.233 591.684 451.683 591.417 453.55H604.567ZM629.027 470.45C626.76 470.45 624.727 470.05 622.927 469.25C621.127 468.417 619.693 467.3 618.627 465.9C617.593 464.5 617.027 462.95 616.927 461.25H623.977C624.11 462.317 624.627 463.2 625.527 463.9C626.46 464.6 627.61 464.95 628.977 464.95C630.31 464.95 631.343 464.683 632.077 464.15C632.843 463.617 633.227 462.933 633.227 462.1C633.227 461.2 632.76 460.533 631.827 460.1C630.927 459.633 629.477 459.133 627.477 458.6C625.41 458.1 623.71 457.583 622.377 457.05C621.077 456.517 619.943 455.7 618.977 454.6C618.043 453.5 617.577 452.017 617.577 450.15C617.577 448.617 618.01 447.217 618.877 445.95C619.777 444.683 621.043 443.683 622.677 442.95C624.343 442.217 626.293 441.85 628.527 441.85C631.827 441.85 634.46 442.683 636.427 444.35C638.393 445.983 639.477 448.2 639.677 451H632.977C632.877 449.9 632.41 449.033 631.577 448.4C630.777 447.733 629.693 447.4 628.327 447.4C627.06 447.4 626.077 447.633 625.377 448.1C624.71 448.567 624.377 449.217 624.377 450.05C624.377 450.983 624.843 451.7 625.777 452.2C626.71 452.667 628.16 453.15 630.127 453.65C632.127 454.15 633.777 454.667 635.077 455.2C636.377 455.733 637.493 456.567 638.427 457.7C639.393 458.8 639.893 460.267 639.927 462.1C639.927 463.7 639.477 465.133 638.577 466.4C637.71 467.667 636.443 468.667 634.777 469.4C633.143 470.1 631.227 470.45 629.027 470.45ZM654.823 462.65L648.973 476.7H644.473L647.723 462.65H654.823ZM88.934 510.1V531.7C88.934 534.067 89.5507 535.883 90.784 537.15C92.0173 538.383 93.7507 539 95.984 539C98.2507 539 100.001 538.383 101.234 537.15C102.467 535.883 103.084 534.067 103.084 531.7V510.1H110.134V531.65C110.134 534.617 109.484 537.133 108.184 539.2C106.917 541.233 105.201 542.767 103.034 543.8C100.901 544.833 98.5173 545.35 95.884 545.35C93.284 545.35 90.9173 544.833 88.784 543.8C86.684 542.767 85.0173 541.233 83.784 539.2C82.5507 537.133 81.934 534.617 81.934 531.65V510.1H88.934ZM128.997 545.45C126.731 545.45 124.697 545.05 122.897 544.25C121.097 543.417 119.664 542.3 118.597 540.9C117.564 539.5 116.997 537.95 116.897 536.25H123.947C124.081 537.317 124.597 538.2 125.497 538.9C126.431 539.6 127.581 539.95 128.947 539.95C130.281 539.95 131.314 539.683 132.047 539.15C132.814 538.617 133.197 537.933 133.197 537.1C133.197 536.2 132.731 535.533 131.797 535.1C130.897 534.633 129.447 534.133 127.447 533.6C125.381 533.1 123.681 532.583 122.347 532.05C121.047 531.517 119.914 530.7 118.947 529.6C118.014 528.5 117.547 527.017 117.547 525.15C117.547 523.617 117.981 522.217 118.847 520.95C119.747 519.683 121.014 518.683 122.647 517.95C124.314 517.217 126.264 516.85 128.497 516.85C131.797 516.85 134.431 517.683 136.397 519.35C138.364 520.983 139.447 523.2 139.647 526H132.947C132.847 524.9 132.381 524.033 131.547 523.4C130.747 522.733 129.664 522.4 128.297 522.4C127.031 522.4 126.047 522.633 125.347 523.1C124.681 523.567 124.347 524.217 124.347 525.05C124.347 525.983 124.814 526.7 125.747 527.2C126.681 527.667 128.131 528.15 130.097 528.65C132.097 529.15 133.747 529.667 135.047 530.2C136.347 530.733 137.464 531.567 138.397 532.7C139.364 533.8 139.864 535.267 139.897 537.1C139.897 538.7 139.447 540.133 138.547 541.4C137.681 542.667 136.414 543.667 134.747 544.4C133.114 545.1 131.197 545.45 128.997 545.45ZM154.143 515.75V524.5H165.893V530.05H154.143V539.3H167.393V545H147.143V510.05H167.393V515.75H154.143ZM190.555 545L184.855 536.4L179.805 545H172.305L181.355 531.1L172.205 517.3H180.105L185.755 525.85L190.855 517.3H198.355L189.255 531.1L198.455 545H190.555ZM210.757 521.3C211.657 520.033 212.89 518.983 214.457 518.15C216.057 517.283 217.873 516.85 219.907 516.85C222.273 516.85 224.407 517.433 226.307 518.6C228.24 519.767 229.757 521.433 230.857 523.6C231.99 525.733 232.557 528.217 232.557 531.05C232.557 533.883 231.99 536.4 230.857 538.6C229.757 540.767 228.24 542.45 226.307 543.65C224.407 544.85 222.273 545.45 219.907 545.45C217.873 545.45 216.073 545.033 214.507 544.2C212.973 543.367 211.723 542.317 210.757 541.05V558.2H203.757V517.3H210.757V521.3ZM225.407 531.05C225.407 529.383 225.057 527.95 224.357 526.75C223.69 525.517 222.79 524.583 221.657 523.95C220.557 523.317 219.357 523 218.057 523C216.79 523 215.59 523.333 214.457 524C213.357 524.633 212.457 525.567 211.757 526.8C211.09 528.033 210.757 529.483 210.757 531.15C210.757 532.817 211.09 534.267 211.757 535.5C212.457 536.733 213.357 537.683 214.457 538.35C215.59 538.983 216.79 539.3 218.057 539.3C219.357 539.3 220.557 538.967 221.657 538.3C222.79 537.633 223.69 536.683 224.357 535.45C225.057 534.217 225.407 532.75 225.407 531.05ZM246.143 521.6C247.043 520.133 248.21 518.983 249.643 518.15C251.11 517.317 252.777 516.9 254.643 516.9V524.25H252.793C250.593 524.25 248.927 524.767 247.793 525.8C246.693 526.833 246.143 528.633 246.143 531.2V545H239.143V517.3H246.143V521.6ZM286.608 530.55C286.608 531.55 286.542 532.45 286.408 533.25H266.158C266.325 535.25 267.025 536.817 268.258 537.95C269.492 539.083 271.008 539.65 272.808 539.65C275.408 539.65 277.258 538.533 278.358 536.3H285.908C285.108 538.967 283.575 541.167 281.308 542.9C279.042 544.6 276.258 545.45 272.958 545.45C270.292 545.45 267.892 544.867 265.758 543.7C263.658 542.5 262.008 540.817 260.808 538.65C259.642 536.483 259.058 533.983 259.058 531.15C259.058 528.283 259.642 525.767 260.808 523.6C261.975 521.433 263.608 519.767 265.708 518.6C267.808 517.433 270.225 516.85 272.958 516.85C275.592 516.85 277.942 517.417 280.008 518.55C282.108 519.683 283.725 521.3 284.858 523.4C286.025 525.467 286.608 527.85 286.608 530.55ZM279.358 528.55C279.325 526.75 278.675 525.317 277.408 524.25C276.142 523.15 274.592 522.6 272.758 522.6C271.025 522.6 269.558 523.133 268.358 524.2C267.192 525.233 266.475 526.683 266.208 528.55H279.358ZM303.818 545.45C301.551 545.45 299.518 545.05 297.718 544.25C295.918 543.417 294.484 542.3 293.418 540.9C292.384 539.5 291.818 537.95 291.718 536.25H298.768C298.901 537.317 299.418 538.2 300.318 538.9C301.251 539.6 302.401 539.95 303.768 539.95C305.101 539.95 306.134 539.683 306.868 539.15C307.634 538.617 308.018 537.933 308.018 537.1C308.018 536.2 307.551 535.533 306.618 535.1C305.718 534.633 304.268 534.133 302.268 533.6C300.201 533.1 298.501 532.583 297.168 532.05C295.868 531.517 294.734 530.7 293.768 529.6C292.834 528.5 292.368 527.017 292.368 525.15C292.368 523.617 292.801 522.217 293.668 520.95C294.568 519.683 295.834 518.683 297.468 517.95C299.134 517.217 301.084 516.85 303.318 516.85C306.618 516.85 309.251 517.683 311.218 519.35C313.184 520.983 314.268 523.2 314.468 526H307.768C307.668 524.9 307.201 524.033 306.368 523.4C305.568 522.733 304.484 522.4 303.118 522.4C301.851 522.4 300.868 522.633 300.168 523.1C299.501 523.567 299.168 524.217 299.168 525.05C299.168 525.983 299.634 526.7 300.568 527.2C301.501 527.667 302.951 528.15 304.918 528.65C306.918 529.15 308.568 529.667 309.868 530.2C311.168 530.733 312.284 531.567 313.218 532.7C314.184 533.8 314.684 535.267 314.718 537.1C314.718 538.7 314.268 540.133 313.368 541.4C312.501 542.667 311.234 543.667 309.568 544.4C307.934 545.1 306.018 545.45 303.818 545.45ZM332.564 545.45C330.297 545.45 328.264 545.05 326.464 544.25C324.664 543.417 323.23 542.3 322.164 540.9C321.13 539.5 320.564 537.95 320.464 536.25H327.514C327.647 537.317 328.164 538.2 329.064 538.9C329.997 539.6 331.147 539.95 332.514 539.95C333.847 539.95 334.88 539.683 335.614 539.15C336.38 538.617 336.764 537.933 336.764 537.1C336.764 536.2 336.297 535.533 335.364 535.1C334.464 534.633 333.014 534.133 331.014 533.6C328.947 533.1 327.247 532.583 325.914 532.05C324.614 531.517 323.48 530.7 322.514 529.6C321.58 528.5 321.114 527.017 321.114 525.15C321.114 523.617 321.547 522.217 322.414 520.95C323.314 519.683 324.58 518.683 326.214 517.95C327.88 517.217 329.83 516.85 332.064 516.85C335.364 516.85 337.997 517.683 339.964 519.35C341.93 520.983 343.014 523.2 343.214 526H336.514C336.414 524.9 335.947 524.033 335.114 523.4C334.314 522.733 333.23 522.4 331.864 522.4C330.597 522.4 329.614 522.633 328.914 523.1C328.247 523.567 327.914 524.217 327.914 525.05C327.914 525.983 328.38 526.7 329.314 527.2C330.247 527.667 331.697 528.15 333.664 528.65C335.664 529.15 337.314 529.667 338.614 530.2C339.914 530.733 341.03 531.567 341.964 532.7C342.93 533.8 343.43 535.267 343.464 537.1C343.464 538.7 343.014 540.133 342.114 541.4C341.247 542.667 339.98 543.667 338.314 544.4C336.68 545.1 334.764 545.45 332.564 545.45ZM376.324 510.1C379.99 510.1 383.207 510.817 385.974 512.25C388.774 513.683 390.924 515.733 392.424 518.4C393.957 521.033 394.724 524.1 394.724 527.6C394.724 531.1 393.957 534.167 392.424 536.8C390.924 539.4 388.774 541.417 385.974 542.85C383.207 544.283 379.99 545 376.324 545H364.124V510.1H376.324ZM376.074 539.05C379.74 539.05 382.574 538.05 384.574 536.05C386.574 534.05 387.574 531.233 387.574 527.6C387.574 523.967 386.574 521.133 384.574 519.1C382.574 517.033 379.74 516 376.074 516H371.124V539.05H376.074ZM427.214 530.55C427.214 531.55 427.147 532.45 427.014 533.25H406.764C406.93 535.25 407.63 536.817 408.864 537.95C410.097 539.083 411.614 539.65 413.414 539.65C416.014 539.65 417.864 538.533 418.964 536.3H426.514C425.714 538.967 424.18 541.167 421.914 542.9C419.647 544.6 416.864 545.45 413.564 545.45C410.897 545.45 408.497 544.867 406.364 543.7C404.264 542.5 402.614 540.817 401.414 538.65C400.247 536.483 399.664 533.983 399.664 531.15C399.664 528.283 400.247 525.767 401.414 523.6C402.58 521.433 404.214 519.767 406.314 518.6C408.414 517.433 410.83 516.85 413.564 516.85C416.197 516.85 418.547 517.417 420.614 518.55C422.714 519.683 424.33 521.3 425.464 523.4C426.63 525.467 427.214 527.85 427.214 530.55ZM419.964 528.55C419.93 526.75 419.28 525.317 418.014 524.25C416.747 523.15 415.197 522.6 413.364 522.6C411.63 522.6 410.164 523.133 408.964 524.2C407.797 525.233 407.08 526.683 406.814 528.55H419.964ZM440.823 508V545H433.823V508H440.823ZM452.789 514C451.556 514 450.522 513.617 449.689 512.85C448.889 512.05 448.489 511.067 448.489 509.9C448.489 508.733 448.889 507.767 449.689 507C450.522 506.2 451.556 505.8 452.789 505.8C454.022 505.8 455.039 506.2 455.839 507C456.672 507.767 457.089 508.733 457.089 509.9C457.089 511.067 456.672 512.05 455.839 512.85C455.039 513.617 454.022 514 452.789 514ZM456.239 517.3V545H449.239V517.3H456.239ZM476.205 538.55L483.205 517.3H490.655L480.405 545H471.905L461.705 517.3H469.205L476.205 538.55ZM521.837 530.55C521.837 531.55 521.77 532.45 521.637 533.25H501.387C501.553 535.25 502.253 536.817 503.487 537.95C504.72 539.083 506.237 539.65 508.037 539.65C510.637 539.65 512.487 538.533 513.587 536.3H521.137C520.337 538.967 518.803 541.167 516.537 542.9C514.27 544.6 511.487 545.45 508.187 545.45C505.52 545.45 503.12 544.867 500.987 543.7C498.887 542.5 497.237 540.817 496.037 538.65C494.87 536.483 494.287 533.983 494.287 531.15C494.287 528.283 494.87 525.767 496.037 523.6C497.203 521.433 498.837 519.767 500.937 518.6C503.037 517.433 505.453 516.85 508.187 516.85C510.82 516.85 513.17 517.417 515.237 518.55C517.337 519.683 518.953 521.3 520.087 523.4C521.253 525.467 521.837 527.85 521.837 530.55ZM514.587 528.55C514.553 526.75 513.903 525.317 512.637 524.25C511.37 523.15 509.82 522.6 507.987 522.6C506.253 522.6 504.787 523.133 503.587 524.2C502.42 525.233 501.703 526.683 501.437 528.55H514.587ZM535.446 521.6C536.346 520.133 537.513 518.983 538.946 518.15C540.413 517.317 542.079 516.9 543.946 516.9V524.25H542.096C539.896 524.25 538.229 524.767 537.096 525.8C535.996 526.833 535.446 528.633 535.446 531.2V545H528.446V517.3H535.446V521.6ZM560.761 545.45C558.494 545.45 556.461 545.05 554.661 544.25C552.861 543.417 551.428 542.3 550.361 540.9C549.328 539.5 548.761 537.95 548.661 536.25H555.711C555.844 537.317 556.361 538.2 557.261 538.9C558.194 539.6 559.344 539.95 560.711 539.95C562.044 539.95 563.078 539.683 563.811 539.15C564.578 538.617 564.961 537.933 564.961 537.1C564.961 536.2 564.494 535.533 563.561 535.1C562.661 534.633 561.211 534.133 559.211 533.6C557.144 533.1 555.444 532.583 554.111 532.05C552.811 531.517 551.678 530.7 550.711 529.6C549.778 528.5 549.311 527.017 549.311 525.15C549.311 523.617 549.744 522.217 550.611 520.95C551.511 519.683 552.778 518.683 554.411 517.95C556.078 517.217 558.028 516.85 560.261 516.85C563.561 516.85 566.194 517.683 568.161 519.35C570.128 520.983 571.211 523.2 571.411 526H564.711C564.611 524.9 564.144 524.033 563.311 523.4C562.511 522.733 561.428 522.4 560.061 522.4C558.794 522.4 557.811 522.633 557.111 523.1C556.444 523.567 556.111 524.217 556.111 525.05C556.111 525.983 556.578 526.7 557.511 527.2C558.444 527.667 559.894 528.15 561.861 528.65C563.861 529.15 565.511 529.667 566.811 530.2C568.111 530.733 569.228 531.567 570.161 532.7C571.128 533.8 571.628 535.267 571.661 537.1C571.661 538.7 571.211 540.133 570.311 541.4C569.444 542.667 568.178 543.667 566.511 544.4C564.878 545.1 562.961 545.45 560.761 545.45ZM630.721 517.3L622.621 545H615.071L610.021 525.65L604.971 545H597.371L589.221 517.3H596.321L601.221 538.4L606.521 517.3H613.921L619.121 538.35L624.021 517.3H630.721ZM639.559 514C638.325 514 637.292 513.617 636.459 512.85C635.659 512.05 635.259 511.067 635.259 509.9C635.259 508.733 635.659 507.767 636.459 507C637.292 506.2 638.325 505.8 639.559 505.8C640.792 505.8 641.809 506.2 642.609 507C643.442 507.767 643.859 508.733 643.859 509.9C643.859 511.067 643.442 512.05 642.609 512.85C641.809 513.617 640.792 514 639.559 514ZM643.009 517.3V545H636.009V517.3H643.009ZM659.575 523.05V536.45C659.575 537.383 659.791 538.067 660.225 538.5C660.691 538.9 661.458 539.1 662.525 539.1H665.775V545H661.375C655.475 545 652.525 542.133 652.525 536.4V523.05H649.225V517.3H652.525V510.45H659.575V517.3H665.775V523.05H659.575ZM687.909 516.9C690.009 516.9 691.876 517.367 693.509 518.3C695.143 519.2 696.409 520.55 697.309 522.35C698.243 524.117 698.709 526.25 698.709 528.75V545H691.709V529.7C691.709 527.5 691.159 525.817 690.059 524.65C688.959 523.45 687.459 522.85 685.559 522.85C683.626 522.85 682.093 523.45 680.959 524.65C679.859 525.817 679.309 527.5 679.309 529.7V545H672.309V508H679.309V520.75C680.209 519.55 681.409 518.617 682.909 517.95C684.409 517.25 686.076 516.9 687.909 516.9ZM298.104 595.9C298.104 597.767 297.654 599.517 296.754 601.15C295.887 602.783 294.504 604.1 292.604 605.1C290.737 606.1 288.371 606.6 285.504 606.6H279.654V620H272.654V585.1H285.504C288.204 585.1 290.504 585.567 292.404 586.5C294.304 587.433 295.721 588.717 296.654 590.35C297.621 591.983 298.104 593.833 298.104 595.9ZM285.204 600.95C287.137 600.95 288.571 600.517 289.504 599.65C290.437 598.75 290.904 597.5 290.904 595.9C290.904 592.5 289.004 590.8 285.204 590.8H279.654V600.95H285.204ZM311.574 596.6C312.474 595.133 313.641 593.983 315.074 593.15C316.541 592.317 318.207 591.9 320.074 591.9V599.25H318.224C316.024 599.25 314.357 599.767 313.224 600.8C312.124 601.833 311.574 603.633 311.574 606.2V620H304.574V592.3H311.574V596.6ZM352.039 605.55C352.039 606.55 351.972 607.45 351.839 608.25H331.589C331.756 610.25 332.456 611.817 333.689 612.95C334.922 614.083 336.439 614.65 338.239 614.65C340.839 614.65 342.689 613.533 343.789 611.3H351.339C350.539 613.967 349.006 616.167 346.739 617.9C344.472 619.6 341.689 620.45 338.389 620.45C335.722 620.45 333.322 619.867 331.189 618.7C329.089 617.5 327.439 615.817 326.239 613.65C325.072 611.483 324.489 608.983 324.489 606.15C324.489 603.283 325.072 600.767 326.239 598.6C327.406 596.433 329.039 594.767 331.139 593.6C333.239 592.433 335.656 591.85 338.389 591.85C341.022 591.85 343.372 592.417 345.439 593.55C347.539 594.683 349.156 596.3 350.289 598.4C351.456 600.467 352.039 602.85 352.039 605.55ZM344.789 603.55C344.756 601.75 344.106 600.317 342.839 599.25C341.572 598.15 340.022 597.6 338.189 597.6C336.456 597.6 334.989 598.133 333.789 599.2C332.622 600.233 331.906 601.683 331.639 603.55H344.789ZM356.848 606.15C356.848 603.283 357.432 600.783 358.598 598.65C359.765 596.483 361.382 594.817 363.448 593.65C365.515 592.45 367.882 591.85 370.548 591.85C373.982 591.85 376.815 592.717 379.048 594.45C381.315 596.15 382.832 598.55 383.598 601.65H376.048C375.648 600.45 374.965 599.517 373.998 598.85C373.065 598.15 371.898 597.8 370.498 597.8C368.498 597.8 366.915 598.533 365.748 600C364.582 601.433 363.998 603.483 363.998 606.15C363.998 608.783 364.582 610.833 365.748 612.3C366.915 613.733 368.498 614.45 370.498 614.45C373.332 614.45 375.182 613.183 376.048 610.65H383.598C382.832 613.65 381.315 616.033 379.048 617.8C376.782 619.567 373.948 620.45 370.548 620.45C367.882 620.45 365.515 619.867 363.448 618.7C361.382 617.5 359.765 615.833 358.598 613.7C357.432 611.533 356.848 609.017 356.848 606.15ZM393.776 589C392.543 589 391.51 588.617 390.676 587.85C389.876 587.05 389.476 586.067 389.476 584.9C389.476 583.733 389.876 582.767 390.676 582C391.51 581.2 392.543 580.8 393.776 580.8C395.01 580.8 396.026 581.2 396.826 582C397.66 582.767 398.076 583.733 398.076 584.9C398.076 586.067 397.66 587.05 396.826 587.85C396.026 588.617 395.01 589 393.776 589ZM397.226 592.3V620H390.226V592.3H397.226ZM416.242 620.45C413.976 620.45 411.942 620.05 410.142 619.25C408.342 618.417 406.909 617.3 405.842 615.9C404.809 614.5 404.242 612.95 404.142 611.25H411.192C411.326 612.317 411.842 613.2 412.742 613.9C413.676 614.6 414.826 614.95 416.192 614.95C417.526 614.95 418.559 614.683 419.292 614.15C420.059 613.617 420.442 612.933 420.442 612.1C420.442 611.2 419.976 610.533 419.042 610.1C418.142 609.633 416.692 609.133 414.692 608.6C412.626 608.1 410.926 607.583 409.592 607.05C408.292 606.517 407.159 605.7 406.192 604.6C405.259 603.5 404.792 602.017 404.792 600.15C404.792 598.617 405.226 597.217 406.092 595.95C406.992 594.683 408.259 593.683 409.892 592.95C411.559 592.217 413.509 591.85 415.742 591.85C419.042 591.85 421.676 592.683 423.642 594.35C425.609 595.983 426.692 598.2 426.892 601H420.192C420.092 599.9 419.626 599.033 418.792 598.4C417.992 597.733 416.909 597.4 415.542 597.4C414.276 597.4 413.292 597.633 412.592 598.1C411.926 598.567 411.592 599.217 411.592 600.05C411.592 600.983 412.059 601.7 412.992 602.2C413.926 602.667 415.376 603.15 417.342 603.65C419.342 604.15 420.992 604.667 422.292 605.2C423.592 605.733 424.709 606.567 425.642 607.7C426.609 608.8 427.109 610.267 427.142 612.1C427.142 613.7 426.692 615.133 425.792 616.4C424.926 617.667 423.659 618.667 421.992 619.4C420.359 620.1 418.442 620.45 416.242 620.45ZM437.938 589C436.705 589 435.672 588.617 434.838 587.85C434.038 587.05 433.638 586.067 433.638 584.9C433.638 583.733 434.038 582.767 434.838 582C435.672 581.2 436.705 580.8 437.938 580.8C439.172 580.8 440.188 581.2 440.988 582C441.822 582.767 442.238 583.733 442.238 584.9C442.238 586.067 441.822 587.05 440.988 587.85C440.188 588.617 439.172 589 437.938 589ZM441.388 592.3V620H434.388V592.3H441.388ZM462.104 620.45C459.438 620.45 457.038 619.867 454.904 618.7C452.771 617.5 451.088 615.817 449.854 613.65C448.654 611.483 448.054 608.983 448.054 606.15C448.054 603.317 448.671 600.817 449.904 598.65C451.171 596.483 452.888 594.817 455.054 593.65C457.221 592.45 459.638 591.85 462.304 591.85C464.971 591.85 467.388 592.45 469.554 593.65C471.721 594.817 473.421 596.483 474.654 598.65C475.921 600.817 476.554 603.317 476.554 606.15C476.554 608.983 475.904 611.483 474.604 613.65C473.338 615.817 471.604 617.5 469.404 618.7C467.238 619.867 464.804 620.45 462.104 620.45ZM462.104 614.35C463.371 614.35 464.554 614.05 465.654 613.45C466.788 612.817 467.688 611.883 468.354 610.65C469.021 609.417 469.354 607.917 469.354 606.15C469.354 603.517 468.654 601.5 467.254 600.1C465.888 598.667 464.204 597.95 462.204 597.95C460.204 597.95 458.521 598.667 457.154 600.1C455.821 601.5 455.154 603.517 455.154 606.15C455.154 608.783 455.804 610.817 457.104 612.25C458.438 613.65 460.104 614.35 462.104 614.35ZM498.539 591.9C501.839 591.9 504.506 592.95 506.539 595.05C508.573 597.117 509.589 600.017 509.589 603.75V620H502.589V604.7C502.589 602.5 502.039 600.817 500.939 599.65C499.839 598.45 498.339 597.85 496.439 597.85C494.506 597.85 492.973 598.45 491.839 599.65C490.739 600.817 490.189 602.5 490.189 604.7V620H483.189V592.3H490.189V595.75C491.123 594.55 492.306 593.617 493.739 592.95C495.206 592.25 496.806 591.9 498.539 591.9Z" fill="#204286"/>
<defs>
<clipPath id="clip0_321_923">
<rect width="746" height="405" fill="white" transform="translate(53)"/>
</clipPath>
</defs>
</svg>
