<svg width="400" height="400" viewBox="0 0 400 400" fill="none" xmlns="http://www.w3.org/2000/svg">
<path d="M44.8135 286.324L40.3285 302.378H36.5335L33.5205 290.947L30.3695 302.378L26.5975 302.401L22.2735 286.324H25.7235L28.5525 298.79L31.8185 286.324H35.4065L38.4885 298.721L41.3405 286.324H44.8135ZM54.782 289.452C55.748 289.452 56.6067 289.667 57.358 290.096C58.1094 290.51 58.692 291.131 59.106 291.959C59.5354 292.772 59.75 293.753 59.75 294.903V302.378H56.53V295.34C56.53 294.328 56.277 293.554 55.771 293.017C55.265 292.465 54.575 292.189 53.701 292.189C52.8117 292.189 52.1064 292.465 51.585 293.017C51.079 293.554 50.826 294.328 50.826 295.34V302.378H47.606V285.358H50.826V291.223C51.24 290.671 51.792 290.242 52.482 289.935C53.172 289.613 53.9387 289.452 54.782 289.452ZM75.3471 295.731C75.3471 296.191 75.3164 296.605 75.2551 296.973H65.9401C66.0168 297.893 66.3388 298.614 66.9061 299.135C67.4734 299.657 68.1711 299.917 68.9991 299.917C70.1951 299.917 71.0461 299.404 71.5521 298.376H75.0251C74.6571 299.603 73.9518 300.615 72.9091 301.412C71.8664 302.194 70.5861 302.585 69.0681 302.585C67.8414 302.585 66.7374 302.317 65.7561 301.78C64.7901 301.228 64.0311 300.454 63.4791 299.457C62.9424 298.461 62.6741 297.311 62.6741 296.007C62.6741 294.689 62.9424 293.531 63.4791 292.534C64.0158 291.538 64.7671 290.771 65.7331 290.234C66.6991 289.698 67.8108 289.429 69.0681 289.429C70.2794 289.429 71.3604 289.69 72.3111 290.211C73.2771 290.733 74.0208 291.476 74.5421 292.442C75.0788 293.393 75.3471 294.489 75.3471 295.731ZM72.0121 294.811C71.9968 293.983 71.6978 293.324 71.1151 292.833C70.5324 292.327 69.8194 292.074 68.9761 292.074C68.1788 292.074 67.5041 292.32 66.9521 292.81C66.4154 293.286 66.0858 293.953 65.9631 294.811H72.0121ZM81.6074 291.614C82.0214 290.94 82.5581 290.411 83.2174 290.027C83.8921 289.644 84.6587 289.452 85.5174 289.452V292.833H84.6664C83.6544 292.833 82.8877 293.071 82.3664 293.546C81.8604 294.022 81.6074 294.85 81.6074 296.03V302.378H78.3874V289.636H81.6074V291.614ZM100.221 295.731C100.221 296.191 100.191 296.605 100.129 296.973H90.8142C90.8909 297.893 91.2129 298.614 91.7802 299.135C92.3476 299.657 93.0452 299.917 93.8732 299.917C95.0692 299.917 95.9202 299.404 96.4262 298.376H99.8992C99.5312 299.603 98.8259 300.615 97.7832 301.412C96.7406 302.194 95.4602 302.585 93.9422 302.585C92.7156 302.585 91.6116 302.317 90.6302 301.78C89.6642 301.228 88.9052 300.454 88.3532 299.457C87.8166 298.461 87.5482 297.311 87.5482 296.007C87.5482 294.689 87.8166 293.531 88.3532 292.534C88.8899 291.538 89.6412 290.771 90.6072 290.234C91.5732 289.698 92.6849 289.429 93.9422 289.429C95.1536 289.429 96.2346 289.69 97.1852 290.211C98.1512 290.733 98.8949 291.476 99.4162 292.442C99.9529 293.393 100.221 294.489 100.221 295.731ZM96.8862 294.811C96.8709 293.983 96.5719 293.324 95.9892 292.833C95.4066 292.327 94.6936 292.074 93.8502 292.074C93.0529 292.074 92.3782 292.32 91.8262 292.81C91.2896 293.286 90.9599 293.953 90.8372 294.811H96.8862ZM108.575 299.411L111.795 289.636H115.222L110.507 302.378H106.597L101.905 289.636H105.355L108.575 299.411ZM129.565 295.731C129.565 296.191 129.534 296.605 129.473 296.973H120.158C120.235 297.893 120.557 298.614 121.124 299.135C121.691 299.657 122.389 299.917 123.217 299.917C124.413 299.917 125.264 299.404 125.77 298.376H129.243C128.875 299.603 128.17 300.615 127.127 301.412C126.084 302.194 124.804 302.585 123.286 302.585C122.059 302.585 120.955 302.317 119.974 301.78C119.008 301.228 118.249 300.454 117.697 299.457C117.16 298.461 116.892 297.311 116.892 296.007C116.892 294.689 117.16 293.531 117.697 292.534C118.234 291.538 118.985 290.771 119.951 290.234C120.917 289.698 122.029 289.429 123.286 289.429C124.497 289.429 125.578 289.69 126.529 290.211C127.495 290.733 128.239 291.476 128.76 292.442C129.297 293.393 129.565 294.489 129.565 295.731ZM126.23 294.811C126.215 293.983 125.916 293.324 125.333 292.833C124.75 292.327 124.037 292.074 123.194 292.074C122.397 292.074 121.722 292.32 121.17 292.81C120.633 293.286 120.304 293.953 120.181 294.811H126.23ZM135.825 291.614C136.239 290.94 136.776 290.411 137.435 290.027C138.11 289.644 138.877 289.452 139.735 289.452V292.833H138.884C137.872 292.833 137.106 293.071 136.584 293.546C136.078 294.022 135.825 294.85 135.825 296.03V302.378H132.605V289.636H135.825V291.614ZM161.53 286.324L156.102 296.789V302.378H152.882V296.789L147.431 286.324H151.065L154.515 293.661L157.942 286.324H161.53ZM169.735 302.585C168.508 302.585 167.404 302.317 166.423 301.78C165.441 301.228 164.667 300.454 164.1 299.457C163.548 298.461 163.272 297.311 163.272 296.007C163.272 294.704 163.555 293.554 164.123 292.557C164.705 291.561 165.495 290.794 166.492 290.257C167.488 289.705 168.6 289.429 169.827 289.429C171.053 289.429 172.165 289.705 173.162 290.257C174.158 290.794 174.94 291.561 175.508 292.557C176.09 293.554 176.382 294.704 176.382 296.007C176.382 297.311 176.083 298.461 175.485 299.457C174.902 300.454 174.105 301.228 173.093 301.78C172.096 302.317 170.977 302.585 169.735 302.585ZM169.735 299.779C170.317 299.779 170.862 299.641 171.368 299.365C171.889 299.074 172.303 298.645 172.61 298.077C172.916 297.51 173.07 296.82 173.07 296.007C173.07 294.796 172.748 293.868 172.104 293.224C171.475 292.565 170.701 292.235 169.781 292.235C168.861 292.235 168.086 292.565 167.458 293.224C166.844 293.868 166.538 294.796 166.538 296.007C166.538 297.219 166.837 298.154 167.435 298.813C168.048 299.457 168.815 299.779 169.735 299.779ZM191.463 289.636V302.378H188.22V300.768C187.806 301.32 187.261 301.757 186.587 302.079C185.927 302.386 185.207 302.539 184.425 302.539C183.428 302.539 182.546 302.332 181.78 301.918C181.013 301.489 180.407 300.868 179.963 300.055C179.533 299.227 179.319 298.246 179.319 297.111V289.636H182.539V296.651C182.539 297.663 182.792 298.445 183.298 298.997C183.804 299.534 184.494 299.802 185.368 299.802C186.257 299.802 186.955 299.534 187.461 298.997C187.967 298.445 188.22 297.663 188.22 296.651V289.636H191.463ZM211.344 299.319H204.95L203.892 302.378H200.511L206.284 286.301H210.033L215.806 302.378H212.402L211.344 299.319ZM210.47 296.743L208.147 290.027L205.824 296.743H210.47ZM221.874 291.614C222.288 290.94 222.825 290.411 223.484 290.027C224.159 289.644 224.926 289.452 225.784 289.452V292.833H224.933C223.921 292.833 223.155 293.071 222.633 293.546C222.127 294.022 221.874 294.85 221.874 296.03V302.378H218.654V289.636H221.874V291.614ZM240.488 295.731C240.488 296.191 240.457 296.605 240.396 296.973H231.081C231.158 297.893 231.48 298.614 232.047 299.135C232.614 299.657 233.312 299.917 234.14 299.917C235.336 299.917 236.187 299.404 236.693 298.376H240.166C239.798 299.603 239.093 300.615 238.05 301.412C237.007 302.194 235.727 302.585 234.209 302.585C232.982 302.585 231.878 302.317 230.897 301.78C229.931 301.228 229.172 300.454 228.62 299.457C228.083 298.461 227.815 297.311 227.815 296.007C227.815 294.689 228.083 293.531 228.62 292.534C229.157 291.538 229.908 290.771 230.874 290.234C231.84 289.698 232.952 289.429 234.209 289.429C235.42 289.429 236.501 289.69 237.452 290.211C238.418 290.733 239.162 291.476 239.683 292.442C240.22 293.393 240.488 294.489 240.488 295.731ZM237.153 294.811C237.138 293.983 236.839 293.324 236.256 292.833C235.673 292.327 234.96 292.074 234.117 292.074C233.32 292.074 232.645 292.32 232.093 292.81C231.556 293.286 231.227 293.953 231.104 294.811H237.153ZM247.047 298.997L244.356 305.46H242.286L243.781 298.997H247.047ZM259.403 286.324V296.26C259.403 297.349 259.686 298.185 260.254 298.767C260.821 299.335 261.618 299.618 262.646 299.618C263.688 299.618 264.493 299.335 265.061 298.767C265.628 298.185 265.912 297.349 265.912 296.26V286.324H269.155V296.237C269.155 297.602 268.856 298.76 268.258 299.71C267.675 300.646 266.885 301.351 265.889 301.826C264.907 302.302 263.811 302.539 262.6 302.539C261.404 302.539 260.315 302.302 259.334 301.826C258.368 301.351 257.601 300.646 257.034 299.71C256.466 298.76 256.183 297.602 256.183 296.237V286.324H259.403ZM277.832 302.585C276.789 302.585 275.854 302.401 275.026 302.033C274.198 301.65 273.538 301.136 273.048 300.492C272.572 299.848 272.312 299.135 272.266 298.353H275.509C275.57 298.844 275.808 299.25 276.222 299.572C276.651 299.894 277.18 300.055 277.809 300.055C278.422 300.055 278.897 299.933 279.235 299.687C279.587 299.442 279.764 299.128 279.764 298.744C279.764 298.33 279.549 298.024 279.12 297.824C278.706 297.61 278.039 297.38 277.119 297.134C276.168 296.904 275.386 296.667 274.773 296.421C274.175 296.176 273.653 295.8 273.209 295.294C272.779 294.788 272.565 294.106 272.565 293.247C272.565 292.542 272.764 291.898 273.163 291.315C273.577 290.733 274.159 290.273 274.911 289.935C275.677 289.598 276.574 289.429 277.602 289.429C279.12 289.429 280.331 289.813 281.236 290.579C282.14 291.331 282.639 292.35 282.731 293.638H279.649C279.603 293.132 279.388 292.734 279.005 292.442C278.637 292.136 278.138 291.982 277.51 291.982C276.927 291.982 276.475 292.09 276.153 292.304C275.846 292.519 275.693 292.818 275.693 293.201C275.693 293.631 275.907 293.96 276.337 294.19C276.766 294.405 277.433 294.627 278.338 294.857C279.258 295.087 280.017 295.325 280.615 295.57C281.213 295.816 281.726 296.199 282.156 296.72C282.6 297.226 282.83 297.901 282.846 298.744C282.846 299.48 282.639 300.14 282.225 300.722C281.826 301.305 281.243 301.765 280.477 302.102C279.725 302.424 278.844 302.585 277.832 302.585ZM289.399 288.923V292.948H294.804V295.501H289.399V299.756H295.494V302.378H286.179V286.301H295.494V288.923H289.399ZM306.148 302.378L303.526 298.422L301.203 302.378H297.753L301.916 295.984L297.707 289.636H301.341L303.94 293.569L306.286 289.636H309.736L305.55 295.984L309.782 302.378H306.148ZM315.441 291.476C315.855 290.894 316.422 290.411 317.143 290.027C317.879 289.629 318.715 289.429 319.65 289.429C320.739 289.429 321.72 289.698 322.594 290.234C323.483 290.771 324.181 291.538 324.687 292.534C325.208 293.516 325.469 294.658 325.469 295.961C325.469 297.265 325.208 298.422 324.687 299.434C324.181 300.431 323.483 301.205 322.594 301.757C321.72 302.309 320.739 302.585 319.65 302.585C318.715 302.585 317.887 302.394 317.166 302.01C316.461 301.627 315.886 301.144 315.441 300.561V308.45H312.221V289.636H315.441V291.476ZM322.18 295.961C322.18 295.195 322.019 294.535 321.697 293.983C321.39 293.416 320.976 292.987 320.455 292.695C319.949 292.404 319.397 292.258 318.799 292.258C318.216 292.258 317.664 292.412 317.143 292.718C316.637 293.01 316.223 293.439 315.901 294.006C315.594 294.574 315.441 295.241 315.441 296.007C315.441 296.774 315.594 297.441 315.901 298.008C316.223 298.576 316.637 299.013 317.143 299.319C317.664 299.611 318.216 299.756 318.799 299.756C319.397 299.756 319.949 299.603 320.455 299.296C320.976 298.99 321.39 298.553 321.697 297.985C322.019 297.418 322.18 296.743 322.18 295.961ZM331.719 291.614C332.133 290.94 332.67 290.411 333.329 290.027C334.004 289.644 334.77 289.452 335.629 289.452V292.833H334.778C333.766 292.833 332.999 293.071 332.478 293.546C331.972 294.022 331.719 294.85 331.719 296.03V302.378H328.499V289.636H331.719V291.614ZM350.333 295.731C350.333 296.191 350.302 296.605 350.241 296.973H340.926C341.002 297.893 341.324 298.614 341.892 299.135C342.459 299.657 343.157 299.917 343.985 299.917C345.181 299.917 346.032 299.404 346.538 298.376H350.011C349.643 299.603 348.937 300.615 347.895 301.412C346.852 302.194 345.572 302.585 344.054 302.585C342.827 302.585 341.723 302.317 340.742 301.78C339.776 301.228 339.017 300.454 338.465 299.457C337.928 298.461 337.66 297.311 337.66 296.007C337.66 294.689 337.928 293.531 338.465 292.534C339.001 291.538 339.753 290.771 340.719 290.234C341.685 289.698 342.796 289.429 344.054 289.429C345.265 289.429 346.346 289.69 347.297 290.211C348.263 290.733 349.006 291.476 349.528 292.442C350.064 293.393 350.333 294.489 350.333 295.731ZM346.998 294.811C346.982 293.983 346.683 293.324 346.101 292.833C345.518 292.327 344.805 292.074 343.962 292.074C343.164 292.074 342.49 292.32 341.938 292.81C341.401 293.286 341.071 293.953 340.949 294.811H346.998ZM358.249 302.585C357.206 302.585 356.271 302.401 355.443 302.033C354.615 301.65 353.956 301.136 353.465 300.492C352.99 299.848 352.729 299.135 352.683 298.353H355.926C355.987 298.844 356.225 299.25 356.639 299.572C357.068 299.894 357.597 300.055 358.226 300.055C358.839 300.055 359.315 299.933 359.652 299.687C360.005 299.442 360.181 299.128 360.181 298.744C360.181 298.33 359.966 298.024 359.537 297.824C359.123 297.61 358.456 297.38 357.536 297.134C356.585 296.904 355.803 296.667 355.19 296.421C354.592 296.176 354.071 295.8 353.626 295.294C353.197 294.788 352.982 294.106 352.982 293.247C352.982 292.542 353.181 291.898 353.58 291.315C353.994 290.733 354.577 290.273 355.328 289.935C356.095 289.598 356.992 289.429 358.019 289.429C359.537 289.429 360.748 289.813 361.653 290.579C362.558 291.331 363.056 292.35 363.148 293.638H360.066C360.02 293.132 359.805 292.734 359.422 292.442C359.054 292.136 358.556 291.982 357.927 291.982C357.344 291.982 356.892 292.09 356.57 292.304C356.263 292.519 356.11 292.818 356.11 293.201C356.11 293.631 356.325 293.96 356.754 294.19C357.183 294.405 357.85 294.627 358.755 294.857C359.675 295.087 360.434 295.325 361.032 295.57C361.63 295.816 362.144 296.199 362.573 296.72C363.018 297.226 363.248 297.901 363.263 298.744C363.263 299.48 363.056 300.14 362.642 300.722C362.243 301.305 361.661 301.765 360.894 302.102C360.143 302.424 359.261 302.585 358.249 302.585ZM371.472 302.585C370.43 302.585 369.494 302.401 368.666 302.033C367.838 301.65 367.179 301.136 366.688 300.492C366.213 299.848 365.952 299.135 365.906 298.353H369.149C369.211 298.844 369.448 299.25 369.862 299.572C370.292 299.894 370.821 300.055 371.449 300.055C372.063 300.055 372.538 299.933 372.875 299.687C373.228 299.442 373.404 299.128 373.404 298.744C373.404 298.33 373.19 298.024 372.76 297.824C372.346 297.61 371.679 297.38 370.759 297.134C369.809 296.904 369.027 296.667 368.413 296.421C367.815 296.176 367.294 295.8 366.849 295.294C366.42 294.788 366.205 294.106 366.205 293.247C366.205 292.542 366.405 291.898 366.803 291.315C367.217 290.733 367.8 290.273 368.551 289.935C369.318 289.598 370.215 289.429 371.242 289.429C372.76 289.429 373.972 289.813 374.876 290.579C375.781 291.331 376.279 292.35 376.371 293.638H373.289C373.243 293.132 373.029 292.734 372.645 292.442C372.277 292.136 371.779 291.982 371.15 291.982C370.568 291.982 370.115 292.09 369.793 292.304C369.487 292.519 369.333 292.818 369.333 293.201C369.333 293.631 369.548 293.96 369.977 294.19C370.407 294.405 371.074 294.627 371.978 294.857C372.898 295.087 373.657 295.325 374.255 295.57C374.853 295.816 375.367 296.199 375.796 296.72C376.241 297.226 376.471 297.901 376.486 298.744C376.486 299.48 376.279 300.14 375.865 300.722C375.467 301.305 374.884 301.765 374.117 302.102C373.366 302.424 372.484 302.585 371.472 302.585ZM75.7082 321.324C77.3949 321.324 78.8745 321.654 80.1472 322.313C81.4352 322.973 82.4242 323.916 83.1142 325.142C83.8195 326.354 84.1722 327.764 84.1722 329.374C84.1722 330.984 83.8195 332.395 83.1142 333.606C82.4242 334.802 81.4352 335.73 80.1472 336.389C78.8745 337.049 77.3949 337.378 75.7082 337.378H70.0962V321.324H75.7082ZM75.5932 334.641C77.2799 334.641 78.5832 334.181 79.5032 333.261C80.4232 332.341 80.8832 331.046 80.8832 329.374C80.8832 327.703 80.4232 326.4 79.5032 325.464C78.5832 324.514 77.2799 324.038 75.5932 324.038H73.3162V334.641H75.5932ZM99.1175 330.731C99.1175 331.191 99.0869 331.605 99.0255 331.973H89.7105C89.7872 332.893 90.1092 333.614 90.6765 334.135C91.2438 334.657 91.9415 334.917 92.7695 334.917C93.9655 334.917 94.8165 334.404 95.3225 333.376H98.7955C98.4275 334.603 97.7222 335.615 96.6795 336.412C95.6369 337.194 94.3565 337.585 92.8385 337.585C91.6118 337.585 90.5078 337.317 89.5265 336.78C88.5605 336.228 87.8015 335.454 87.2495 334.457C86.7128 333.461 86.4445 332.311 86.4445 331.007C86.4445 329.689 86.7128 328.531 87.2495 327.534C87.7862 326.538 88.5375 325.771 89.5035 325.234C90.4695 324.698 91.5812 324.429 92.8385 324.429C94.0499 324.429 95.1309 324.69 96.0815 325.211C97.0475 325.733 97.7912 326.476 98.3125 327.442C98.8492 328.393 99.1175 329.489 99.1175 330.731ZM95.7825 329.811C95.7672 328.983 95.4682 328.324 94.8855 327.833C94.3029 327.327 93.5899 327.074 92.7465 327.074C91.9492 327.074 91.2745 327.32 90.7225 327.81C90.1859 328.286 89.8562 328.953 89.7335 329.811H95.7825ZM105.378 320.358V337.378H102.158V320.358H105.378ZM110.882 323.118C110.315 323.118 109.84 322.942 109.456 322.589C109.088 322.221 108.904 321.769 108.904 321.232C108.904 320.696 109.088 320.251 109.456 319.898C109.84 319.53 110.315 319.346 110.882 319.346C111.45 319.346 111.917 319.53 112.285 319.898C112.669 320.251 112.86 320.696 112.86 321.232C112.86 321.769 112.669 322.221 112.285 322.589C111.917 322.942 111.45 323.118 110.882 323.118ZM112.469 324.636V337.378H109.249V324.636H112.469ZM121.654 334.411L124.874 324.636H128.301L123.586 337.378H119.676L114.984 324.636H118.434L121.654 334.411ZM142.644 330.731C142.644 331.191 142.613 331.605 142.552 331.973H133.237C133.314 332.893 133.636 333.614 134.203 334.135C134.77 334.657 135.468 334.917 136.296 334.917C137.492 334.917 138.343 334.404 138.849 333.376H142.322C141.954 334.603 141.249 335.615 140.206 336.412C139.163 337.194 137.883 337.585 136.365 337.585C135.138 337.585 134.034 337.317 133.053 336.78C132.087 336.228 131.328 335.454 130.776 334.457C130.239 333.461 129.971 332.311 129.971 331.007C129.971 329.689 130.239 328.531 130.776 327.534C131.313 326.538 132.064 325.771 133.03 325.234C133.996 324.698 135.108 324.429 136.365 324.429C137.576 324.429 138.657 324.69 139.608 325.211C140.574 325.733 141.318 326.476 141.839 327.442C142.376 328.393 142.644 329.489 142.644 330.731ZM139.309 329.811C139.294 328.983 138.995 328.324 138.412 327.833C137.829 327.327 137.116 327.074 136.273 327.074C135.476 327.074 134.801 327.32 134.249 327.81C133.712 328.286 133.383 328.953 133.26 329.811H139.309ZM148.904 326.614C149.318 325.94 149.855 325.411 150.514 325.027C151.189 324.644 151.956 324.452 152.814 324.452V327.833H151.963C150.951 327.833 150.185 328.071 149.663 328.546C149.157 329.022 148.904 329.85 148.904 331.03V337.378H145.684V324.636H148.904V326.614ZM160.549 337.585C159.507 337.585 158.571 337.401 157.743 337.033C156.915 336.65 156.256 336.136 155.765 335.492C155.29 334.848 155.029 334.135 154.983 333.353H158.226C158.288 333.844 158.525 334.25 158.939 334.572C159.369 334.894 159.898 335.055 160.526 335.055C161.14 335.055 161.615 334.933 161.952 334.687C162.305 334.442 162.481 334.128 162.481 333.744C162.481 333.33 162.267 333.024 161.837 332.824C161.423 332.61 160.756 332.38 159.836 332.134C158.886 331.904 158.104 331.667 157.49 331.421C156.892 331.176 156.371 330.8 155.926 330.294C155.497 329.788 155.282 329.106 155.282 328.247C155.282 327.542 155.482 326.898 155.88 326.315C156.294 325.733 156.877 325.273 157.628 324.935C158.395 324.598 159.292 324.429 160.319 324.429C161.837 324.429 163.049 324.813 163.953 325.579C164.858 326.331 165.356 327.35 165.448 328.638H162.366C162.32 328.132 162.106 327.734 161.722 327.442C161.354 327.136 160.856 326.982 160.227 326.982C159.645 326.982 159.192 327.09 158.87 327.304C158.564 327.519 158.41 327.818 158.41 328.201C158.41 328.631 158.625 328.96 159.054 329.19C159.484 329.405 160.151 329.627 161.055 329.857C161.975 330.087 162.734 330.325 163.332 330.57C163.93 330.816 164.444 331.199 164.873 331.72C165.318 332.226 165.548 332.901 165.563 333.744C165.563 334.48 165.356 335.14 164.942 335.722C164.544 336.305 163.961 336.765 163.194 337.102C162.443 337.424 161.561 337.585 160.549 337.585ZM188.798 337.378H185.578L178.287 326.361V337.378H175.067V321.301H178.287L185.578 332.341V321.301H188.798V337.378ZM204.515 330.731C204.515 331.191 204.484 331.605 204.423 331.973H195.108C195.185 332.893 195.507 333.614 196.074 334.135C196.641 334.657 197.339 334.917 198.167 334.917C199.363 334.917 200.214 334.404 200.72 333.376H204.193C203.825 334.603 203.12 335.615 202.077 336.412C201.034 337.194 199.754 337.585 198.236 337.585C197.009 337.585 195.905 337.317 194.924 336.78C193.958 336.228 193.199 335.454 192.647 334.457C192.11 333.461 191.842 332.311 191.842 331.007C191.842 329.689 192.11 328.531 192.647 327.534C193.184 326.538 193.935 325.771 194.901 325.234C195.867 324.698 196.979 324.429 198.236 324.429C199.447 324.429 200.528 324.69 201.479 325.211C202.445 325.733 203.189 326.476 203.71 327.442C204.247 328.393 204.515 329.489 204.515 330.731ZM201.18 329.811C201.165 328.983 200.866 328.324 200.283 327.833C199.7 327.327 198.987 327.074 198.144 327.074C197.347 327.074 196.672 327.32 196.12 327.81C195.583 328.286 195.254 328.953 195.131 329.811H201.18ZM206.727 330.961C206.727 329.673 206.98 328.531 207.486 327.534C208.008 326.538 208.705 325.771 209.579 325.234C210.469 324.698 211.458 324.429 212.546 324.429C213.497 324.429 214.325 324.621 215.03 325.004C215.751 325.388 216.326 325.871 216.755 326.453V324.636H219.998V337.378H216.755V335.515C216.341 336.113 215.766 336.612 215.03 337.01C214.31 337.394 213.474 337.585 212.523 337.585C211.45 337.585 210.469 337.309 209.579 336.757C208.705 336.205 208.008 335.431 207.486 334.434C206.98 333.422 206.727 332.265 206.727 330.961ZM216.755 331.007C216.755 330.225 216.602 329.558 216.295 329.006C215.989 328.439 215.575 328.01 215.053 327.718C214.532 327.412 213.972 327.258 213.374 327.258C212.776 327.258 212.224 327.404 211.718 327.695C211.212 327.987 210.798 328.416 210.476 328.983C210.17 329.535 210.016 330.195 210.016 330.961C210.016 331.728 210.17 332.403 210.476 332.985C210.798 333.553 211.212 333.99 211.718 334.296C212.24 334.603 212.792 334.756 213.374 334.756C213.972 334.756 214.532 334.611 215.053 334.319C215.575 334.013 215.989 333.583 216.295 333.031C216.602 332.464 216.755 331.789 216.755 331.007ZM227.053 326.614C227.467 325.94 228.004 325.411 228.663 325.027C229.338 324.644 230.105 324.452 230.963 324.452V327.833H230.112C229.1 327.833 228.334 328.071 227.812 328.546C227.306 329.022 227.053 329.85 227.053 331.03V337.378H223.833V324.636H227.053V326.614ZM239.165 330.961C239.165 329.673 239.418 328.531 239.924 327.534C240.445 326.538 241.143 325.771 242.017 325.234C242.906 324.698 243.895 324.429 244.984 324.429C245.934 324.429 246.762 324.621 247.468 325.004C248.188 325.388 248.763 325.871 249.193 326.453V324.636H252.436V337.378H249.193V335.515C248.779 336.113 248.204 336.612 247.468 337.01C246.747 337.394 245.911 337.585 244.961 337.585C243.887 337.585 242.906 337.309 242.017 336.757C241.143 336.205 240.445 335.431 239.924 334.434C239.418 333.422 239.165 332.265 239.165 330.961ZM249.193 331.007C249.193 330.225 249.039 329.558 248.733 329.006C248.426 328.439 248.012 328.01 247.491 327.718C246.969 327.412 246.41 327.258 245.812 327.258C245.214 327.258 244.662 327.404 244.156 327.695C243.65 327.987 243.236 328.416 242.914 328.983C242.607 329.535 242.454 330.195 242.454 330.961C242.454 331.728 242.607 332.403 242.914 332.985C243.236 333.553 243.65 333.99 244.156 334.296C244.677 334.603 245.229 334.756 245.812 334.756C246.41 334.756 246.969 334.611 247.491 334.319C248.012 334.013 248.426 333.583 248.733 333.031C249.039 332.464 249.193 331.789 249.193 331.007ZM263.331 324.452C264.849 324.452 266.076 324.935 267.011 325.901C267.947 326.852 268.414 328.186 268.414 329.903V337.378H265.194V330.34C265.194 329.328 264.941 328.554 264.435 328.017C263.929 327.465 263.239 327.189 262.365 327.189C261.476 327.189 260.771 327.465 260.249 328.017C259.743 328.554 259.49 329.328 259.49 330.34V337.378H256.27V324.636H259.49V326.223C259.92 325.671 260.464 325.242 261.123 324.935C261.798 324.613 262.534 324.452 263.331 324.452ZM271.338 330.961C271.338 329.673 271.591 328.531 272.097 327.534C272.619 326.538 273.324 325.771 274.213 325.234C275.103 324.698 276.092 324.429 277.18 324.429C278.008 324.429 278.798 324.613 279.549 324.981C280.301 325.334 280.899 325.809 281.343 326.407V320.358H284.609V337.378H281.343V335.492C280.945 336.121 280.385 336.627 279.664 337.01C278.944 337.394 278.108 337.585 277.157 337.585C276.084 337.585 275.103 337.309 274.213 336.757C273.324 336.205 272.619 335.431 272.097 334.434C271.591 333.422 271.338 332.265 271.338 330.961ZM281.366 331.007C281.366 330.225 281.213 329.558 280.906 329.006C280.6 328.439 280.186 328.01 279.664 327.718C279.143 327.412 278.583 327.258 277.985 327.258C277.387 327.258 276.835 327.404 276.329 327.695C275.823 327.987 275.409 328.416 275.087 328.983C274.781 329.535 274.627 330.195 274.627 330.961C274.627 331.728 274.781 332.403 275.087 332.985C275.409 333.553 275.823 333.99 276.329 334.296C276.851 334.603 277.403 334.756 277.985 334.756C278.583 334.756 279.143 334.611 279.664 334.319C280.186 334.013 280.6 333.583 280.906 333.031C281.213 332.464 281.366 331.789 281.366 331.007ZM304.528 321.324V323.923H297.835V328.04H302.964V330.593H297.835V337.378H294.615V321.324H304.528ZM306.673 330.961C306.673 329.673 306.926 328.531 307.432 327.534C307.953 326.538 308.651 325.771 309.525 325.234C310.414 324.698 311.403 324.429 312.492 324.429C313.443 324.429 314.271 324.621 314.976 325.004C315.697 325.388 316.272 325.871 316.701 326.453V324.636H319.944V337.378H316.701V335.515C316.287 336.113 315.712 336.612 314.976 337.01C314.255 337.394 313.42 337.585 312.469 337.585C311.396 337.585 310.414 337.309 309.525 336.757C308.651 336.205 307.953 335.431 307.432 334.434C306.926 333.422 306.673 332.265 306.673 330.961ZM316.701 331.007C316.701 330.225 316.548 329.558 316.241 329.006C315.934 328.439 315.52 328.01 314.999 327.718C314.478 327.412 313.918 327.258 313.32 327.258C312.722 327.258 312.17 327.404 311.664 327.695C311.158 327.987 310.744 328.416 310.422 328.983C310.115 329.535 309.962 330.195 309.962 330.961C309.962 331.728 310.115 332.403 310.422 332.985C310.744 333.553 311.158 333.99 311.664 334.296C312.185 334.603 312.737 334.756 313.32 334.756C313.918 334.756 314.478 334.611 314.999 334.319C315.52 334.013 315.934 333.583 316.241 333.031C316.548 332.464 316.701 331.789 316.701 331.007ZM326.999 326.614C327.413 325.94 327.95 325.411 328.609 325.027C329.284 324.644 330.05 324.452 330.909 324.452V327.833H330.058C329.046 327.833 328.279 328.071 327.758 328.546C327.252 329.022 326.999 329.85 326.999 331.03V337.378H323.779V324.636H326.999V326.614Z" fill="#204286"/>
<g clip-path="url(#clip0_346_1006)">
<path d="M197.84 236.846H185.883V139.294H195.608C196.079 139.294 196.53 139.492 196.864 139.844C197.198 140.196 197.387 140.674 197.389 141.173L197.84 236.846Z" fill="#FEC180"/>
<path d="M187.001 237.362H58.5983V167.889H187.001V237.362Z" fill="white"/>
<path d="M136.391 237.104H58.842V168.147H186.757V183.713C186.742 197.868 181.431 211.439 171.989 221.448C162.546 231.458 149.744 237.088 136.391 237.104Z" fill="#FEC180"/>
<path d="M195.893 142.065C195.828 142.194 195.778 142.331 195.744 142.473L191.316 160.564L186.513 170.206H59.0858V167.805L66.3407 160.564L74.8038 143.404C75.1774 142.646 75.6681 141.961 76.2554 141.375C77.5954 140.038 79.366 139.294 81.206 139.294H194.317C194.625 139.294 194.926 139.378 195.194 139.538C195.461 139.698 195.685 139.929 195.843 140.208C196.002 140.487 196.09 140.804 196.098 141.129C196.107 141.455 196.036 141.777 195.893 142.065Z" fill="#FEC180"/>
<path d="M187.001 237.362H58.5983V167.889H187.001V237.362ZM59.573 236.329H186.026V168.922H59.573V236.329Z" fill="#E6E6E6"/>
<path d="M193.681 151.32L191.316 160.564H66.3406L70.3789 152.87L193.681 151.32Z" fill="#D2A06C"/>
<path d="M83.8019 204.294H63.3333V205.494H83.8019V204.294Z" fill="white"/>
<path d="M83.8019 208.496H63.3333V209.697H83.8019V208.496Z" fill="white"/>
<path d="M83.8019 212.699H63.3333V213.899H83.8019V212.699Z" fill="white"/>
<path d="M71.262 190.918C75.3282 190.918 78.6245 187.424 78.6245 183.114C78.6245 178.803 75.3282 175.309 71.262 175.309C67.1958 175.309 63.8995 178.803 63.8995 183.114C63.8995 187.424 67.1958 190.918 71.262 190.918Z" fill="white"/>
<path d="M151.956 155.321H145.704V104.306H150.789C151.035 104.306 151.271 104.41 151.446 104.594C151.621 104.778 151.719 105.028 151.721 105.289L151.956 155.321Z" fill="#FEC180"/>
<path d="M146.288 155.591H79.1395V119.26H146.288V155.591Z" fill="white"/>
<path d="M119.821 155.457H79.2668V119.395H146.161V127.536C146.153 134.938 143.375 142.035 138.437 147.269C133.499 152.504 126.804 155.448 119.821 155.457Z" fill="#FEC180"/>
<path d="M150.938 105.755C150.904 105.823 150.878 105.895 150.86 105.969L148.544 115.43L146.033 120.472H79.3942V119.216L83.1882 115.43L87.614 106.456C87.8094 106.06 88.066 105.701 88.3731 105.395C89.0739 104.696 89.9998 104.306 90.9621 104.306H150.114C150.275 104.306 150.433 104.35 150.572 104.434C150.712 104.518 150.829 104.638 150.912 104.784C150.995 104.93 151.041 105.096 151.045 105.266C151.05 105.436 151.013 105.605 150.938 105.755Z" fill="#FEC180"/>
<path d="M146.288 155.591H79.1395V119.26H146.288V155.591ZM79.6492 155.051H145.778V119.8H79.6492V155.051Z" fill="#FEC180"/>
<path d="M149.781 110.595L148.545 115.43H83.1884L85.3002 111.406L149.781 110.595Z" fill="#E29F58"/>
<path d="M92.3197 138.298H81.6156V138.926H92.3197V138.298Z" fill="white"/>
<path d="M92.3197 140.496H81.6156V141.124H92.3197V140.496Z" fill="white"/>
<path d="M92.3197 142.694H81.6156V143.322H92.3197V142.694Z" fill="white"/>
<path d="M85.762 131.304C87.8884 131.304 89.6122 129.476 89.6122 127.222C89.6122 124.968 87.8884 123.141 85.762 123.141C83.6356 123.141 81.9118 124.968 81.9118 127.222C81.9118 129.476 83.6356 131.304 85.762 131.304Z" fill="white"/>
<path d="M336.238 237.327L336.199 237.107C335.567 233.409 335.701 229.609 336.594 225.971C337.486 222.334 339.115 218.946 341.368 216.044C342.643 214.426 344.106 212.985 345.721 211.755L345.875 211.638L345.942 211.826C346.746 214.071 347.76 216.32 348.222 217.315L348.534 209.885L348.712 209.785C349.527 209.322 350.455 209.128 351.375 209.229C352.295 209.329 353.165 209.72 353.874 210.349C354.607 210.974 355.147 211.817 355.425 212.77C355.702 213.723 355.704 214.742 355.43 215.696C355.187 216.569 354.958 217.475 354.737 218.351C353.976 221.36 353.19 224.472 351.666 227.092C350.494 229.063 348.921 230.732 347.062 231.977C345.204 233.222 343.107 234.011 340.924 234.286L336.238 237.327Z" fill="#FEC180"/>
<path d="M285.293 79.9351L276.417 78.5874C273.415 83.9086 272.348 98.072 272.348 98.072L263.661 119.959C263.086 120.373 262.624 120.941 262.321 121.604C262.018 122.268 261.886 123.005 261.937 123.74C261.989 124.475 262.222 125.183 262.613 125.792C263.005 126.402 263.541 126.891 264.167 127.211C264.794 127.531 265.489 127.67 266.182 127.615C266.876 127.56 267.543 127.312 268.117 126.896C268.692 126.481 269.153 125.912 269.454 125.247C269.755 124.583 269.886 123.846 269.833 123.111L284.095 97.6354L285.293 79.9351Z" fill="#FFB8B8"/>
<path d="M283.88 53.813C285.254 54.0386 286.564 54.5823 287.717 55.4056C288.87 56.2288 289.838 57.3114 290.552 58.5762C291.265 59.841 291.707 61.257 291.846 62.7234C291.984 64.1898 291.817 65.6705 291.354 67.0603L289.47 72.7198C289.47 72.7198 288.445 89.7608 284.535 94.5711L272.536 93.4196C272.536 93.4196 274.729 84.8222 273.045 80.6625C272.014 78.115 272.071 69.3162 273.087 62.1586C273.278 60.8588 273.708 59.6116 274.354 58.4884C275 57.3651 275.848 56.3879 276.851 55.6127C277.853 54.8376 278.99 54.2796 280.196 53.9708C281.403 53.6619 282.654 53.6083 283.88 53.813Z" fill="#5369A2"/>
<path d="M313.215 230.633L307.868 230.632L305.324 208.77L313.215 208.771L313.215 230.633Z" fill="#FFB6B6"/>
<path d="M313.403 236.546L296.96 236.545V236.325C296.961 234.525 297.635 232.8 298.835 231.528C300.035 230.255 301.663 229.541 303.36 229.541L306.364 227.125L311.968 229.541L313.403 229.541L313.403 236.546Z" fill="#2F2E41"/>
<path d="M289.969 203.538L285.03 205.709L274.78 186.547L282.07 183.343L289.969 203.538Z" fill="#FFB6B6"/>
<path d="M292.28 208.923L277.092 215.6L277.012 215.396C276.362 213.734 276.361 211.866 277.01 210.204C277.659 208.541 278.904 207.22 280.472 206.531L282.374 203.08L288.423 203.036L289.749 202.453L292.28 208.923Z" fill="#2F2E41"/>
<path d="M319.328 106.268L281.382 110.471L276.307 128.593L258.729 158.538L278.137 196.338L284.972 189.835L278.411 159.311L297.994 136.9L301.707 135.267L304.655 218.427L315.557 218.617L320.328 126.854C322.621 118.748 321.93 112.055 319.328 106.268Z" fill="#2F2E41"/>
<path d="M305.416 48.8977L299.187 41.4636L289.346 42.6228L283.045 51.9701C279.692 52.7874 276.761 54.9362 274.856 57.9744C272.951 61.0126 272.217 64.7092 272.805 68.3035C275.251 83.2282 283.56 97.7034 280.816 105.067C276.651 116.246 276.397 120.805 286.367 119.237C296.336 117.67 329.737 114.057 323.261 107.193C316.785 100.328 315.363 88.8577 315.363 88.8577L315.103 62.6146C315.379 61.0318 315.342 59.4057 314.996 57.8387C314.649 56.2716 314.001 54.7975 313.091 53.5091C312.181 52.2207 311.029 51.1459 309.708 50.3523C308.387 49.5587 306.926 49.0634 305.416 48.8977Z" fill="#5369A2"/>
<path d="M293.245 39.5614C299.278 39.5614 304.169 34.3766 304.169 27.9809C304.169 21.5852 299.278 16.4004 293.245 16.4004C287.211 16.4004 282.32 21.5852 282.32 27.9809C282.32 34.3766 287.211 39.5614 293.245 39.5614Z" fill="#FFB8B8"/>
<path d="M306.705 27.2933C306.218 29.6396 305.338 31.8745 304.107 33.8922C303.78 34.5802 303.292 35.1676 302.69 35.598C302.385 35.8055 302.021 35.8931 301.661 35.8454C301.301 35.7977 300.969 35.6179 300.721 35.3372L300.456 35.1076C300.977 34.7672 301.442 34.3391 301.834 33.84C302.027 33.5896 302.162 33.2937 302.226 32.9771C302.29 32.6605 302.282 32.3321 302.203 32.0194C302.108 31.711 301.905 31.4534 301.635 31.3007C301.365 31.148 301.05 31.1121 300.756 31.2004C300.116 31.4665 299.727 32.4472 299.058 32.2959C298.517 32.1707 298.404 31.4143 298.404 30.8196C298.423 27.7106 297.006 23.2922 295.909 23.4278C294.8 23.492 293.69 23.3345 292.636 22.9635C291.581 22.5918 290.468 22.4412 289.359 22.5201C289.28 22.5305 289.201 22.5462 289.118 22.5618C288.94 21.9711 288.695 21.4054 288.389 20.8769C288.424 21.5148 288.394 22.1549 288.301 22.7861C287.418 23.1718 286.506 23.4772 285.574 23.699C284.561 23.8503 282.332 27.0637 282.228 26.7351C282.05 26.1444 281.806 25.5786 281.5 25.0501C281.534 25.6881 281.505 26.3281 281.411 26.9594C281.406 26.9854 281.406 27.0063 281.401 27.0324C280.909 26.3386 280.609 25.4935 280.776 26.1404C279.128 22.1862 279.768 19.3537 282.361 16.0203C282.866 15.3035 283.535 14.7345 284.305 14.3666C284.69 14.1872 285.113 14.1159 285.532 14.1598C285.95 14.2036 286.352 14.3611 286.696 14.617C287.754 13.589 289.052 12.8796 290.456 12.5622C291.859 12.2448 293.317 12.3311 294.678 12.8121C297.38 13.8085 299.462 14.3927 299.875 17.3975C302.109 17.0166 304.407 18.3625 305.637 20.3709C306.863 22.3845 307.114 24.9406 306.705 27.2933Z" fill="#2F2E41"/>
<path d="M297.847 123.48H294.221V93.8979H297.169C297.312 93.898 297.449 93.9579 297.551 94.0647C297.652 94.1715 297.709 94.3164 297.71 94.4678L297.847 123.48Z" fill="#FEC180"/>
<path d="M294.56 123.636H255.623V102.569H294.56V123.636Z" fill="white"/>
<path d="M279.213 123.558H255.697V102.647H294.486V107.368C294.481 111.66 292.871 115.775 290.007 118.811C287.144 121.846 283.262 123.553 279.213 123.558Z" fill="#FEC180"/>
<path d="M297.256 94.7382C297.236 94.7775 297.221 94.819 297.211 94.8619L295.868 100.348L294.412 103.272H255.77V102.544L257.97 100.348L260.537 95.1443C260.65 94.9146 260.799 94.7066 260.977 94.529C261.383 94.1236 261.92 93.8979 262.478 93.8979H296.778C296.871 93.8979 296.963 93.9235 297.044 93.972C297.125 94.0206 297.193 94.0905 297.241 94.175C297.289 94.2596 297.316 94.3559 297.318 94.4545C297.321 94.5532 297.3 94.6509 297.256 94.7382Z" fill="#FEC180"/>
<path d="M294.56 123.636H255.623V102.569H294.56V123.636ZM255.918 123.323H294.264V102.882H255.918V123.323Z" fill="#FEC180"/>
<path d="M296.585 97.5444L295.868 100.348H257.971L259.195 98.0146L296.585 97.5444Z" fill="#E29F58"/>
<path d="M263.265 113.609H257.058V113.973H263.265V113.609Z" fill="white"/>
<path d="M263.265 114.883H257.058V115.247H263.265V114.883Z" fill="white"/>
<path d="M263.265 116.157H257.058V116.521H263.265V116.157Z" fill="white"/>
<path d="M259.463 109.553C260.696 109.553 261.695 108.493 261.695 107.186C261.695 105.879 260.696 104.819 259.463 104.819C258.23 104.819 257.23 105.879 257.23 107.186C257.23 108.493 258.23 109.553 259.463 109.553Z" fill="white"/>
<path d="M312.994 77.2305L304.118 75.8828C301.116 81.204 300.049 95.3674 300.049 95.3674L291.363 117.254C290.787 117.668 290.325 118.236 290.023 118.9C289.72 119.564 289.588 120.3 289.639 121.035C289.69 121.771 289.923 122.478 290.315 123.088C290.706 123.697 291.242 124.186 291.869 124.506C292.495 124.826 293.19 124.966 293.884 124.91C294.577 124.855 295.245 124.607 295.819 124.192C296.394 123.776 296.854 123.207 297.156 122.543C297.457 121.878 297.587 121.141 297.534 120.406L311.797 94.9308L312.994 77.2305Z" fill="#FFB8B8"/>
<path d="M308.184 51.1082C309.558 51.3338 310.868 51.8775 312.021 52.7008C313.174 53.5241 314.142 54.6066 314.855 55.8714C315.569 57.1362 316.011 58.5522 316.149 60.0186C316.288 61.485 316.12 62.9657 315.657 64.3555L313.774 70.0151C313.774 70.0151 316.146 87.056 312.236 91.8663L300.237 90.7149C300.237 90.7149 302.431 82.1174 300.747 77.9577C299.715 75.4102 299.772 66.6115 300.789 59.4539C301.565 53.9884 303.031 50.2624 308.184 51.1082Z" fill="#5369A2"/>
<path d="M232.812 22.9126C228.476 25.2053 225.176 29.2303 223.639 34.1022C222.101 38.9741 222.453 44.2938 224.616 48.8909C229.12 58.4641 245.395 74.7909 258.38 77.2578C252.795 59.2791 260.561 41.0046 257.319 31.6015C253.855 21.5539 241.843 18.1382 232.812 22.9126Z" fill="#FEC180"/>
<path d="M238.9 45.6806C242.191 45.6806 244.859 42.8523 244.859 39.3635C244.859 35.8747 242.191 33.0464 238.9 33.0464C235.608 33.0464 232.94 35.8747 232.94 39.3635C232.94 42.8523 235.608 45.6806 238.9 45.6806Z" fill="white"/>
<path d="M258.266 87.3972C260.421 87.3972 262.169 85.5448 262.169 83.2596C262.169 80.9745 260.421 79.1221 258.266 79.1221C256.11 79.1221 254.362 80.9745 254.362 83.2596C254.362 85.5448 256.11 87.3972 258.266 87.3972Z" fill="#FEC180"/>
<path opacity="0.2" d="M240.716 32.7228C241.498 32.694 242.278 32.8289 243.012 33.1199C243.745 33.4109 244.417 33.8522 244.989 34.4187C245.562 34.9851 246.023 35.6655 246.347 36.4211C246.671 37.1766 246.852 37.9925 246.878 38.822C246.905 39.6516 246.777 40.4785 246.502 41.2556C246.227 42.0327 245.81 42.7447 245.275 43.3509C244.74 43.9571 244.098 44.4456 243.385 44.7885C242.672 45.1315 241.902 45.3221 241.119 45.3495C242.446 44.8267 243.553 43.8205 244.243 42.5112C244.934 41.2019 245.162 39.6748 244.887 38.2034C244.613 36.732 243.853 35.4122 242.744 34.4803C241.635 33.5484 240.25 33.0652 238.836 33.1171C239.438 32.8791 240.073 32.7459 240.716 32.7228Z" fill="#231F20"/>
<path opacity="0.2" d="M257.349 31.605C260.591 41.0081 252.824 59.2826 258.41 77.2613C257.184 77.0221 255.977 76.6871 254.798 76.2591C250.247 58.8792 257.39 41.5127 254.258 32.4276C251.454 24.2963 243.052 20.5093 235.163 21.8909C243.822 18.7605 254.174 22.3974 257.349 31.605Z" fill="#231F20"/>
<path d="M74.4194 118.846C69.9302 118.731 65.5821 120.512 62.3316 123.796C59.081 127.081 57.1943 131.599 57.0865 136.358C56.8621 146.267 63.518 167.116 73.1451 175.101C75.9196 157.81 89.7509 146.41 90.9393 137.22C92.2092 127.399 83.7676 119.084 74.4194 118.846Z" fill="#E92626" fill-opacity="0.87"/>
<path d="M72.6802 140.969C75.7298 140.969 78.2021 138.349 78.2021 135.116C78.2021 131.883 75.7298 129.262 72.6802 129.262C69.6306 129.262 67.1584 131.883 67.1584 135.116C67.1584 138.349 69.6306 140.969 72.6802 140.969Z" fill="white"/>
<path d="M70.5979 183.798C72.5953 183.798 74.2146 182.082 74.2146 179.965C74.2146 177.847 72.5953 176.131 70.5979 176.131C68.6004 176.131 66.9812 177.847 66.9812 179.965C66.9812 182.082 68.6004 183.798 70.5979 183.798Z" fill="#EA4040"/>
<path opacity="0.2" d="M76.8824 130.511C78.1993 131.191 79.2077 132.396 79.686 133.864C80.1642 135.331 80.0729 136.94 79.4323 138.336C79.1151 139.027 78.6726 139.645 78.13 140.155C77.5874 140.665 76.9553 141.057 76.27 141.308C74.8858 141.814 73.3683 141.718 72.0514 141.039C73.3514 141.22 74.6697 140.904 75.7703 140.149C76.871 139.394 77.6822 138.248 78.0587 136.917C78.4352 135.585 78.3525 134.155 77.8253 132.883C77.2981 131.61 76.3609 130.578 75.1815 129.971C75.7722 130.053 76.3466 130.235 76.8824 130.511Z" fill="#231F20"/>
<path opacity="0.2" d="M90.9624 137.236C89.774 146.427 75.9427 157.827 73.1682 175.118C72.2621 174.359 71.4103 173.53 70.6196 172.638C73.9966 156.313 86.946 145.37 88.0943 136.49C89.1219 128.542 83.7888 121.582 76.7625 119.089C85.1339 120.503 92.1261 128.237 90.9624 137.236Z" fill="#231F20"/>
<path d="M138.654 42.5779C137.393 42.6654 136.213 43.2713 135.366 44.2668C134.52 45.2622 134.073 46.5686 134.121 47.908C134.135 48.18 134.17 48.4504 134.226 48.7164L119.898 58.2846L127.819 61.9982L140.21 52.3427C141.233 52.0116 142.123 51.331 142.742 50.4072C143.361 49.4834 143.674 48.3683 143.633 47.2359C143.603 46.5918 143.454 45.9602 143.194 45.3771C142.935 44.7941 142.569 44.2709 142.119 43.8376C141.668 43.4043 141.142 43.0693 140.569 42.8517C139.996 42.6341 139.389 42.5382 138.781 42.5695C138.739 42.5717 138.696 42.5745 138.654 42.5779Z" fill="#FFB6B6"/>
<path d="M124.838 53.9358L128.389 61.7022L114.349 71.2794C113.351 71.9668 112.202 72.3719 111.014 72.4562C109.826 72.5406 108.637 72.3015 107.56 71.7616C106.251 71.0975 105.182 70.0004 104.512 68.6357C103.843 67.271 103.61 65.7126 103.849 64.1954L108.405 36.6254C108.71 34.6961 109.702 32.9644 111.176 31.7864C112.649 30.6084 114.492 30.0737 116.326 30.2923C117.22 30.3958 118.085 30.6849 118.873 31.1429C119.661 31.601 120.356 32.219 120.918 32.9618C121.481 33.7046 121.9 34.5576 122.152 35.4721C122.403 36.3866 122.482 37.3446 122.385 38.2916C122.377 38.3664 122.368 38.4411 122.358 38.5156C122.324 38.7805 122.276 39.0433 122.215 39.3027L117.242 58.91L124.838 53.9358Z" fill="#6C63FF"/>
<path d="M125.836 65.9756H105.758V87.2598H125.836V65.9756Z" fill="#FFB8B8"/>
<path d="M173.452 128.659L181.12 125.924L185.39 148.051L180.194 149.903L173.452 128.659Z" fill="#FFB6B6"/>
<path d="M160.455 126.959L168.062 124.036L172.816 146.05L167.662 148.031L160.455 126.959Z" fill="#FFB6B6"/>
<path d="M106.478 92.8202C102.454 121.26 156.045 104.446 156.045 104.446L172.848 129.018L182.685 127.122C182.685 127.122 178.258 112.371 170.353 92.596C166.843 83.8141 126.98 85.9599 126.98 85.9599L126.152 79.0741L103.348 78.6001L106.478 92.8202Z" fill="#2F2E41"/>
<path d="M145.189 106.353L157.582 98.1711C166.654 117.375 169.328 125.691 169.328 125.691L160.751 128.248L145.189 106.353Z" fill="#2F2E41"/>
<path d="M117.948 31.3885L113.907 25.8817L108.142 25.6167L107.567 30.7959L104.71 32.1922C101.858 43.6789 101.417 55.689 103.42 67.3758C103.802 67.7579 104.082 68.2413 104.23 68.7762C104.378 69.3112 104.388 69.8782 104.26 70.4188L104.075 71.2015L104.092 71.2301C104.7 72.2468 104.906 73.4761 104.666 74.6526L103.302 77.2222C102.813 78.1462 102.519 79.1722 102.441 80.2288C102.364 81.2854 102.504 82.3472 102.853 83.3405C103.202 84.3337 103.75 85.2345 104.461 85.9803C105.171 86.726 106.026 87.2987 106.966 87.6587C115.352 90.8806 123.212 92.0807 129.027 83.0395L130.856 51.5325L117.948 31.3885Z" fill="#6C63FF"/>
<path d="M113.715 27.3441C119.601 27.3441 124.374 22.2853 124.374 16.045C124.374 9.80465 119.601 4.74585 113.715 4.74585C107.828 4.74585 103.056 9.80465 103.056 16.045C103.056 22.2853 107.828 27.3441 113.715 27.3441Z" fill="#FFB8B8"/>
<path d="M108.363 2.4241C103.85 2.51602 100.271 6.95372 100.368 12.336C97.0285 16.0302 96.2194 34.2006 99.01 39.0344C104.115 39.6626 107.22 26.2743 111.697 28.2097L112.287 25.2879L113.624 29.0928C114.761 29.6488 115.891 30.2591 117.011 30.9238C117.816 27.0083 117.617 23.2023 115.452 19.8872C113.53 16.9422 118.209 13.4458 121.555 13.9399L121.506 11.235L122.347 13.9238C123.651 14.9399 125.094 14.5721 126.574 13.8377C128.973 0.618113 110.396 -2.99703 108.363 2.4241Z" fill="#2F2E41"/>
<path d="M177.833 153.646L181.249 153.173L181.437 149.669L183.421 152.872L192.482 151.617C192.916 151.557 193.321 151.351 193.637 151.03C193.953 150.709 194.164 150.289 194.24 149.831C194.315 149.374 194.25 148.903 194.055 148.487C193.859 148.072 193.544 147.733 193.154 147.521L185.265 143.226L184.839 139.769L177.288 141.304L177.833 153.646Z" fill="#2F2E41"/>
<path d="M168.809 153.677L171.908 152.082L171.04 148.695L173.878 151.068L182.098 146.837C182.493 146.634 182.815 146.303 183.019 145.892C183.223 145.481 183.298 145.012 183.232 144.553C183.167 144.094 182.965 143.669 182.656 143.34C182.346 143.011 181.946 142.796 181.513 142.725L172.747 141.299L171.31 138.163L164.606 142.154L168.809 153.677Z" fill="#2F2E41"/>
<path d="M122.021 78.3293H125.822V47.3225H122.731C122.581 47.3225 122.437 47.3853 122.331 47.4973C122.225 47.6092 122.165 47.7611 122.164 47.9198L122.021 78.3293Z" fill="#FEC180"/>
<path d="M125.467 56.4114H166.279V78.4936H125.467V56.4114Z" fill="white"/>
<path d="M125.544 61.4413V56.4937H166.202V78.4116H141.553C137.308 78.4065 133.239 76.617 130.238 73.4355C127.237 70.2541 125.549 65.9405 125.544 61.4413Z" fill="#F2F2F2"/>
<path d="M122.64 48.2032C122.661 48.2444 122.677 48.2879 122.688 48.3329L124.095 54.0833L125.621 57.1479H166.124V56.3847L163.818 54.0833L161.128 48.6289C161.01 48.3881 160.854 48.1701 160.667 47.9839C160.241 47.5591 159.678 47.3225 159.093 47.3225H123.141C123.043 47.3225 122.947 47.3493 122.862 47.4001C122.777 47.451 122.706 47.5244 122.656 47.613C122.606 47.7016 122.578 47.8025 122.575 47.9059C122.572 48.0093 122.595 48.1118 122.64 48.2032Z" fill="#FEC180"/>
<path d="M125.467 56.4114H166.279V78.4936H125.467V56.4114ZM165.969 78.1651H125.776V56.7398H165.969L165.969 78.1651Z" fill="#FEC180"/>
<path d="M123.343 51.1448L124.095 54.0834H163.818L162.535 51.6376L123.343 51.1448Z" fill="#D2A06C"/>
<path d="M164.774 67.9829H158.268V68.3646H164.774V67.9829Z" fill="white"/>
<path d="M164.774 69.3186H158.268V69.7002H164.774V69.3186Z" fill="white"/>
<path d="M164.774 70.6543H158.268V71.0359H164.774V70.6543Z" fill="white"/>
<path d="M162.254 63.7314C163.546 63.7314 164.594 62.6208 164.594 61.2507C164.594 59.8807 163.546 58.77 162.254 58.77C160.962 58.77 159.914 59.8807 159.914 61.2507C159.914 62.6208 160.962 63.7314 162.254 63.7314Z" fill="white"/>
<path d="M143.376 23.7676C146.127 23.6976 148.791 24.7888 150.783 26.8011C152.774 28.8135 153.93 31.5821 153.997 34.498C154.134 40.5701 150.056 53.3448 144.157 58.2378C142.457 47.6428 133.982 40.6576 133.253 35.026C132.475 29.0085 137.648 23.9134 143.376 23.7676Z" fill="#5369A2"/>
<path d="M144.442 37.3237C146.31 37.3237 147.825 35.7179 147.825 33.7371C147.825 31.7562 146.31 30.1504 144.442 30.1504C142.573 30.1504 141.058 31.7562 141.058 33.7371C141.058 35.7179 142.573 37.3237 144.442 37.3237Z" fill="white"/>
<path d="M145.718 63.5671C146.941 63.5671 147.934 62.5153 147.934 61.2179C147.934 59.9204 146.941 58.8687 145.718 58.8687C144.494 58.8687 143.501 59.9204 143.501 61.2179C143.501 62.5153 144.494 63.5671 145.718 63.5671Z" fill="#5369A2"/>
<path opacity="0.2" d="M141.867 30.9157C141.467 31.1217 141.11 31.4092 140.815 31.7616C140.52 32.114 140.294 32.5246 140.149 32.9698C140.004 33.4149 139.943 33.886 139.969 34.3562C139.996 34.8263 140.11 35.2863 140.304 35.7099C140.499 36.1334 140.77 36.5122 141.102 36.8247C141.435 37.1371 141.822 37.3771 142.242 37.5309C142.662 37.6847 143.106 37.7493 143.55 37.7211C143.993 37.6928 144.427 37.5722 144.827 37.3662C144.03 37.477 143.223 37.2838 142.548 36.821C141.874 36.3582 141.377 35.6561 141.146 34.8403C140.915 34.0246 140.966 33.1484 141.289 32.3686C141.612 31.5889 142.186 30.9564 142.909 30.5845C142.547 30.6346 142.195 30.7464 141.867 30.9157Z" fill="#231F20"/>
<path opacity="0.2" d="M133.239 35.0364C133.968 40.668 142.443 47.6533 144.143 58.2483C144.698 57.7832 145.22 57.2753 145.704 56.7286C143.635 46.7254 135.7 40.0203 134.997 34.5791C134.367 29.7092 137.635 25.444 141.94 23.9167C136.811 24.7829 132.526 29.5219 133.239 35.0364Z" fill="#231F20"/>
<path d="M137.349 53.5929C136.088 53.4939 134.84 53.9204 133.871 54.7816C132.902 55.6429 132.289 56.8708 132.161 58.2043C132.139 58.4758 132.138 58.7487 132.159 59.0203L116.717 66.3875L124.075 71.2308L137.611 63.4922C138.667 63.3147 139.637 62.7717 140.371 61.948C141.106 61.1242 141.562 60.066 141.669 58.9385C141.78 57.6415 141.401 56.3508 140.614 55.3502C139.828 54.3497 138.699 53.7213 137.475 53.6033C137.433 53.5992 137.391 53.5958 137.349 53.5929Z" fill="#FFB6B6"/>
<path d="M122.179 62.8078L124.679 71.0215L109.521 78.44C108.441 78.9736 107.251 79.2058 106.063 79.1145C104.875 79.0232 103.729 78.6115 102.734 77.9184C101.525 77.0681 100.609 75.8242 100.125 74.3742C99.6407 72.9242 99.6142 71.3467 100.049 69.8793L108.171 43.2466C108.727 41.381 109.936 39.812 111.549 38.8622C113.163 37.9124 115.058 37.6542 116.846 38.1405C117.717 38.3745 118.536 38.7881 119.256 39.3577C119.976 39.9272 120.584 40.6416 121.044 41.46C121.503 42.2784 121.807 43.1847 121.936 44.1274C122.066 45.07 122.019 46.0305 121.798 46.9539C121.78 47.0268 121.762 47.0995 121.742 47.1719C121.674 47.4291 121.592 47.6823 121.497 47.9303L114.004 66.6158L122.179 62.8078Z" fill="#6C63FF"/>
<path d="M324.994 223.253L324.942 222.904C324.104 217.033 324.282 211 325.465 205.225C326.648 199.45 328.808 194.072 331.793 189.464C333.484 186.896 335.423 184.608 337.564 182.655L337.768 182.468L337.857 182.767C338.922 186.332 340.266 189.902 340.879 191.482L341.292 179.686L341.528 179.527C342.609 178.792 343.838 178.484 345.058 178.644C346.277 178.804 347.431 179.424 348.371 180.424C349.343 181.415 350.059 182.754 350.426 184.267C350.794 185.78 350.796 187.398 350.433 188.912C350.112 190.298 349.808 191.736 349.515 193.126C348.507 197.904 347.464 202.844 345.444 207.004C343.89 210.134 341.805 212.784 339.342 214.76C336.878 216.736 334.098 217.988 331.205 218.426L324.994 223.253Z" fill="#FEC180"/>
</g>
<defs>
<clipPath id="clip0_346_1006">
<rect width="311.263" height="237.851" fill="white" transform="translate(44.3686)"/>
</clipPath>
</defs>
</svg>
